<?xml version="1.0" encoding="UTF-8" standalone="no"?>
<!-- Created with Inkscape (http://www.inkscape.org/) -->

<svg
   xmlns:dc="http://purl.org/dc/elements/1.1/"
   xmlns:cc="http://creativecommons.org/ns#"
   xmlns:rdf="http://www.w3.org/1999/02/22-rdf-syntax-ns#"
   xmlns:svg="http://www.w3.org/2000/svg"
   xmlns="http://www.w3.org/2000/svg"
   xmlns:sodipodi="http://sodipodi.sourceforge.net/DTD/sodipodi-0.dtd"
   xmlns:inkscape="http://www.inkscape.org/namespaces/inkscape"
   width="574.29462"
   height="511.62207"
   id="svg2"
   version="1.1"
   inkscape:version="0.47 r22583"
   sodipodi:docname="primalDir.svg">
  <defs
     id="defs4">
    <linearGradient
       id="linearGradient4223">
      <stop
         style="stop-color:#ff0000;stop-opacity:1;"
         offset="0"
         id="stop4225" />
      <stop
         id="stop4231"
         offset="0.5"
         style="stop-color:#ff0000;stop-opacity:0.49803922;" />
      <stop
         style="stop-color:#ff0000;stop-opacity:0;"
         offset="1"
         id="stop4227" />
    </linearGradient>
    <marker
       inkscape:stockid="Arrow1Mend"
       orient="auto"
       refY="0"
       refX="0"
       id="Arrow1Mend"
       style="overflow:visible">
      <path
         id="path3624"
         d="M 0,0 5,-5 -12.5,0 5,5 0,0 z"
         style="fill-rule:evenodd;stroke:#000000;stroke-width:1pt;marker-start:none"
         transform="matrix(-0.4,0,0,-0.4,-4,0)" />
    </marker>
    <inkscape:perspective
       sodipodi:type="inkscape:persp3d"
       inkscape:vp_x="0 : 526.18109 : 1"
       inkscape:vp_y="0 : 1000 : 0"
       inkscape:vp_z="744.09448 : 526.18109 : 1"
       inkscape:persp3d-origin="372.04724 : 350.78739 : 1"
       id="perspective10" />
    <inkscape:perspective
       id="perspective2828"
       inkscape:persp3d-origin="0.5 : 0.33333333 : 1"
       inkscape:vp_z="1 : 0.5 : 1"
       inkscape:vp_y="0 : 1000 : 0"
       inkscape:vp_x="0 : 0.5 : 1"
       sodipodi:type="inkscape:persp3d" />
    <inkscape:perspective
       id="perspective4068"
       inkscape:persp3d-origin="0.5 : 0.33333333 : 1"
       inkscape:vp_z="1 : 0.5 : 1"
       inkscape:vp_y="0 : 1000 : 0"
       inkscape:vp_x="0 : 0.5 : 1"
       sodipodi:type="inkscape:persp3d" />
    <inkscape:perspective
       id="perspective4091"
       inkscape:persp3d-origin="0.5 : 0.33333333 : 1"
       inkscape:vp_z="1 : 0.5 : 1"
       inkscape:vp_y="0 : 1000 : 0"
       inkscape:vp_x="0 : 0.5 : 1"
       sodipodi:type="inkscape:persp3d" />
    <inkscape:perspective
       id="perspective4639"
       inkscape:persp3d-origin="0.5 : 0.33333333 : 1"
       inkscape:vp_z="1 : 0.5 : 1"
       inkscape:vp_y="0 : 1000 : 0"
       inkscape:vp_x="0 : 0.5 : 1"
       sodipodi:type="inkscape:persp3d" />
    <inkscape:perspective
       id="perspective4671"
       inkscape:persp3d-origin="0.5 : 0.33333333 : 1"
       inkscape:vp_z="1 : 0.5 : 1"
       inkscape:vp_y="0 : 1000 : 0"
       inkscape:vp_x="0 : 0.5 : 1"
       sodipodi:type="inkscape:persp3d" />
    <inkscape:perspective
       id="perspective4718"
       inkscape:persp3d-origin="0.5 : 0.33333333 : 1"
       inkscape:vp_z="1 : 0.5 : 1"
       inkscape:vp_y="0 : 1000 : 0"
       inkscape:vp_x="0 : 0.5 : 1"
       sodipodi:type="inkscape:persp3d" />
    <inkscape:perspective
       id="perspective5202"
       inkscape:persp3d-origin="0.5 : 0.33333333 : 1"
       inkscape:vp_z="1 : 0.5 : 1"
       inkscape:vp_y="0 : 1000 : 0"
       inkscape:vp_x="0 : 0.5 : 1"
       sodipodi:type="inkscape:persp3d" />
    <inkscape:perspective
       id="perspective3061"
       inkscape:persp3d-origin="0.5 : 0.33333333 : 1"
       inkscape:vp_z="1 : 0.5 : 1"
       inkscape:vp_y="0 : 1000 : 0"
       inkscape:vp_x="0 : 0.5 : 1"
       sodipodi:type="inkscape:persp3d" />
  </defs>
  <sodipodi:namedview
     id="base"
     pagecolor="#ffffff"
     bordercolor="#666666"
     borderopacity="1.0"
     inkscape:pageopacity="0.0"
     inkscape:pageshadow="2"
     inkscape:zoom="0.5"
     inkscape:cx="102.03208"
     inkscape:cy="298.84408"
     inkscape:document-units="px"
     inkscape:current-layer="layer1"
     showgrid="false"
     showborder="true"
     inkscape:window-width="1024"
     inkscape:window-height="1233"
     inkscape:window-x="0"
     inkscape:window-y="226"
     inkscape:window-maximized="1" />
  <metadata
     id="metadata7">
    <rdf:RDF>
      <cc:Work
         rdf:about="">
        <dc:format>image/svg+xml</dc:format>
        <dc:type
           rdf:resource="http://purl.org/dc/dcmitype/StillImage" />
        <dc:title />
      </cc:Work>
    </rdf:RDF>
  </metadata>
  <g
     inkscape:label="Layer 1"
     inkscape:groupmode="layer"
     id="layer1"
     transform="translate(-101.3071,-260.5194)">
    <rect
       style="fill:#ffffff;fill-opacity:1;stroke:#000000;stroke-width:7;stroke-miterlimit:4;stroke-opacity:1;stroke-dasharray:none;stroke-dashoffset:0"
       id="rect2816"
       width="426.28436"
       height="406.08133"
       x="156.85281"
       y="297.99139" />
    <path
       style="fill:none;stroke:#000000;stroke-width:7.14024258;stroke-linecap:butt;stroke-linejoin:miter;stroke-miterlimit:4;stroke-opacity:1;stroke-dasharray:none;marker-end:url(#Arrow1Mend)"
       d="M 104.87722,719.49914 468.33194,373.8813"
       id="path2818" />
    <g
       transform="matrix(10,0,0,-10,351.39047,591.61408)"
       inkscape:label="ink_ext_XXXXXX"
       id="g2830">
      <g
         transform="scale(0.1,0.1)"
         id="g2832">
        <path
           id="path2834"
           style="fill:#000000;fill-opacity:1;fill-rule:nonzero;stroke:none"
           d="M 62.2891,78.4414 C 62.2891,85.8516 56.8086,92 48.7383,92 42.9609,92 40.1719,90.4102 36.6914,87.8398 31.2109,83.8789 25.7305,74.2891 23.8398,66.7812 L 8,4 C 7.89844,3.60156 8.39844,3.01172 9.19922,3.01172 10,3.01172 10.3008,3.21094 10.3984,3.5 l 6.9727,27.2891 c 1.8906,-5.9297 6.2773,-9.5899 13.5508,-9.5899 7.2695,0 14.75,3.461 19.2265,7.8125 4.793,4.5469 7.9727,10.8789 7.9727,18.1992 0,7.1172 -3.6914,12.2579 -7.2695,14.7305 5.7773,3.2578 11.457,9.3867 11.457,16.5078 L 62.2891,78.4414 z M 44.3516,62.1719 C 43.0586,61.3281 41.9609,61 39.5703,61 c -1.3906,0 -3.3906,0.3516 -4.3789,0.8516 0.1992,1 3.7891,1.1484 4.8789,1.1484 2.0899,0 2.9883,0 4.2891,-0.8281 l -0.0078,0 z m 12.3593,18.7773 c 0,-6.9609 -3.789,-14.1211 -8.9726,-17.1992 -2.6875,1.0508 -4.6797,1.2617 -7.668,1.2617 -2.0898,0 -7.6719,0.0391 -7.6719,-3.25 -0.0976,-2.7929 5.0821,-2.75 6.8711,-2.75 3.6914,0 5.1797,0.1172 8.1719,1.5469 3.7891,-3.5898 4.2774,-6.6797 4.3789,-11.2578 0.1992,-5.7813 -2.1914,-13.25 -4.9805,-17.1406 -3.8906,-5.379 -10.5586,-8.961 -16.2382,-8.961 -7.5704,0 -11.3633,5.7696 -11.3633,12.8399 0,0.9921 0,2.4921 0.5,4.3828 l 6.3828,25.1875 C 28.3086,74.1719 35.4805,90 47.4414,90 c 5.7774,0 9.2695,-3.0898 9.2695,-9.0508" />
      </g>
    </g>
    <g
       transform="matrix(5,0,0,-5,162.04898,773.14733)"
       inkscape:label="ink_ext_XXXXXX"
       id="g4070">
      <g
         transform="scale(0.1,0.1)"
         id="g4072">
        <path
           id="path4074"
           style="fill:#000000;fill-opacity:1;fill-rule:nonzero;stroke:none"
           d="m 56,69.75 -51.71094,0 0,-2.75 2.26172,0 C 13.8008,67 14,65.8906 14,62.2812 L 14,9.71875 C 14,6.10938 13.8086,5.01172 6.55078,5.01172 l -2.26172,0 0,-3 31.88284,0 0,3 -3.3907,0 c -9.7695,0 -9.7695,1.29687 -9.7695,4.8164 l 0,53.16018 c 0,3.3125 0.1992,4.0234 4.9375,4.0234 l 10.3906,0 c 14.4219,0 16.5391,-5.9805 18.1485,-19.6719 l 2.5234,0" />
        <path
           id="path4076"
           style="fill:#000000;fill-opacity:1;fill-rule:nonzero;stroke:none"
           d="M 116.211,3 C 117.32,3 119,3 119,4.46875 119,6 117.391,6 116.211,6 L 74.7812,6 C 73.6719,6 72,6 72,4.53125 72,3 73.6016,3 74.7812,3" />
      </g>
    </g>
    <g
       transform="matrix(5,0,0,-5,615.49623,310.3944)"
       inkscape:label="ink_ext_XXXXXX"
       id="g4093">
      <g
         transform="scale(0.1,0.1)"
         id="g4095">
        <path
           id="path4097"
           style="fill:#000000;fill-opacity:1;fill-rule:nonzero;stroke:none"
           d="m 57,99.75 -51.71094,0 0,-2.75 2.26172,0 C 14.8008,97 15,95.8906 15,92.2812 l 0,-52.5624 c 0,-3.6094 -0.1914,-4.7071 -7.44922,-4.7071 l -2.26172,0 0,-3 31.88284,0 0,3 -3.3907,0 c -9.7695,0 -9.7695,1.2969 -9.7695,4.8164 l 0,53.1602 c 0,3.3125 0.1992,4.0234 4.9375,4.0234 l 10.3906,0 c 14.4219,0 16.5391,-5.9805 18.1485,-19.6719 l 2.5234,0" />
        <path
           id="path4099"
           style="fill:#000000;fill-opacity:1;fill-rule:nonzero;stroke:none"
           d="m 96,33 21.602,0 c 0.918,0 2.609,0 2.609,1.4688 C 120.211,36 118.59,36 117.602,36 L 96,36 96,57.4102 c 0,0.9101 0,2.5781 -1.4688,2.5781 C 93,59.9883 93,58.3789 93,57.4102 L 93,36 71.4805,36 C 70.5703,36 68.8906,36 68.8906,34.5312 68.8906,33 70.5,33 71.4805,33 L 93,33 93,11.5781 C 93,10.6719 93,9 94.4688,9 96,9 96,10.6094 96,11.5781" />
      </g>
    </g>
    <g
       id="g5206"
       transform="matrix(0.5,0,0,-0.5,378.54282,364.39379)">
      <path
         d="M 34.9688,27.5781 C 36.0586,23.5508 39.5195,21 43.7891,21 c 3.4609,0 5.75,2.2812 7.332,5.4492 1.6797,3.5703 2.9805,9.6094 2.9805,9.8008 0,0.9883 -0.9024,0.9883 -1.2032,0.9883 -1,0 -1.0976,-0.3985 -1.3984,-1.7969 C 50.1016,29.8203 48.1992,23 44,23 c -2.1016,0 -3.1016,1.3008 -3.1016,4.5898 0,2.1993 1.2032,6.8907 2,10.379 l 2.8008,10.7929 c 0.3008,1.5 1.3008,5.2891 1.6992,6.7891 0.5,2.3008 1.5,6.0898 1.5,6.6875 0,1.8008 -1.3984,2.7031 -2.8984,2.7031 -0.5,0 -3.1016,-0.1133 -3.8984,-3.5 -1.9024,-7.293 -6.3008,-24.7617 -7.5,-30.0508 C 34.5,30.9883 30.5,23 23.1992,23 18,23 17,27.4883 17,31.1797 17,36.7695 19.7617,44.6484 22.3203,51.5312 23.5117,54.5195 24,55.9219 24,57.8086 24,62.3008 20.8398,66 15.9102,66 6.53906,66 2.89062,51.5898 2.89062,50.6992 c 0,-1 0.98047,-1 1.17969,-1 0.98047,0 1.07813,0.1992 1.57031,1.8125 C 8.08984,60.2695 11.8203,64 15.5508,64 c 0.8789,0 2.4609,-0.1094 2.4609,-3.3008 0,-2.3906 -1.0312,-5.289 -1.5898,-6.7773 C 12.9688,44.0508 11,37.8594 11,32.9688 11,23.4883 17.8398,21 23.1914,21 c 6.5391,0 10.1094,4.4219 11.7891,6.5781"
         style="fill:#000000;fill-opacity:1;fill-rule:nonzero;stroke:none"
         id="path5208" />
      <path
         d="m 153.621,55 c 1.488,0 3.379,0 3.379,2 0,2 -1.891,2 -3.281,2 l -59.4573,0 c -1.3906,0 -3.2812,0 -3.2812,-2 0,-2 1.8906,-2 3.3789,-2 l 59.2616,0 z m 0.098,-20 c 1.39,0 3.281,0 3.281,2 0,2 -1.891,2 -3.379,2 l -59.2616,0 c -1.4883,0 -3.3711,0 -3.3711,-2 0,-2 1.8906,-2 3.2812,-2"
         style="fill:#000000;fill-opacity:1;fill-rule:nonzero;stroke:none"
         id="path5210" />
      <path
         d="M 224.969,27.5781 C 226.059,23.5508 229.52,21 233.789,21 c 3.461,0 5.75,2.2812 7.332,5.4492 1.68,3.5703 2.981,9.6094 2.981,9.8008 0,0.9883 -0.903,0.9883 -1.204,0.9883 -1,0 -1.097,-0.3985 -1.398,-1.7969 C 240.102,29.8203 238.199,23 234,23 c -2.102,0 -3.102,1.3008 -3.102,4.5898 0,2.1993 1.204,6.8907 2,10.379 l 2.801,10.7929 c 0.301,1.5 1.301,5.2891 1.699,6.7891 0.5,2.3008 1.5,6.0898 1.5,6.6875 0,1.8008 -1.398,2.7031 -2.898,2.7031 -0.5,0 -3.102,-0.1133 -3.898,-3.5 -1.903,-7.293 -6.301,-24.7617 -7.5,-30.0508 C 224.5,30.9883 220.5,23 213.199,23 208,23 207,27.4883 207,31.1797 c 0,5.5898 2.762,13.4687 5.32,20.3515 1.192,2.9883 1.68,4.3907 1.68,6.2774 0,4.4922 -3.16,8.1914 -8.09,8.1914 -9.371,0 -13.019,-14.4102 -13.019,-15.3008 0,-1 0.98,-1 1.179,-1 0.981,0 1.078,0.1992 1.571,1.8125 2.449,8.7578 6.179,12.4883 9.91,12.4883 0.879,0 2.461,-0.1094 2.461,-3.3008 0,-2.3906 -1.032,-5.289 -1.59,-6.7773 C 202.969,44.0508 201,37.8594 201,32.9688 201,23.4883 207.84,21 213.191,21 c 6.539,0 10.11,4.4219 11.789,6.5781"
         style="fill:#000000;fill-opacity:1;fill-rule:nonzero;stroke:none"
         id="path5212" />
      <path
         d="M 271,51.0781 C 271,52.9297 270.859,53 268.82,53 264.18,49.0586 257.57,49 254.602,49 l 0,-3 c 1.718,0 6.449,0 10.398,2.2891 l 0,-35.1172 C 265,10.8984 265,10 257.82,10 l -2.73,0 0,-3 24.89,0 0,3 -2.468,0 C 271,10 271,10.8906 271,13.1484"
         style="fill:#000000;fill-opacity:1;fill-rule:nonzero;stroke:none"
         id="path5214" />
    </g>
    <path
       style="fill:none;stroke:#ff0000;stroke-width:4;stroke-linecap:butt;stroke-linejoin:miter;stroke-miterlimit:4;stroke-opacity:1;stroke-dasharray:none"
       d="m 170.3071,310.14147 400,-1 -1,381"
       id="path3705" />
    <g
       transform="matrix(5,0,0,-5,215.83445,685.14147)"
       inkscape:label="ink_ext_XXXXXX"
       id="g3063">
      <g
         transform="scale(0.1,0.1)"
         id="g3065">
        <path
           id="path3067"
           style="fill:#000000;fill-opacity:1;fill-rule:nonzero;stroke:none"
           d="M 34.9688,27.5781 C 36.0586,23.5508 39.5195,21 43.7891,21 c 3.4609,0 5.75,2.2812 7.332,5.4492 1.6797,3.5703 2.9805,9.6094 2.9805,9.8008 0,0.9883 -0.9024,0.9883 -1.2032,0.9883 -1,0 -1.0976,-0.3985 -1.3984,-1.7969 C 50.1016,29.8203 48.1992,23 44,23 c -2.1016,0 -3.1016,1.3008 -3.1016,4.5898 0,2.1993 1.2032,6.8907 2,10.379 l 2.8008,10.7929 c 0.3008,1.5 1.3008,5.2891 1.6992,6.7891 0.5,2.3008 1.5,6.0898 1.5,6.6875 0,1.8008 -1.3984,2.7031 -2.8984,2.7031 -0.5,0 -3.1016,-0.1133 -3.8984,-3.5 -1.9024,-7.293 -6.3008,-24.7617 -7.5,-30.0508 C 34.5,30.9883 30.5,23 23.1992,23 18,23 17,27.4883 17,31.1797 17,36.7695 19.7617,44.6484 22.3203,51.5312 23.5117,54.5195 24,55.9219 24,57.8086 24,62.3008 20.8398,66 15.9102,66 6.53906,66 2.89062,51.5898 2.89062,50.6992 c 0,-1 0.98047,-1 1.17969,-1 0.98047,0 1.07813,0.1992 1.57031,1.8125 C 8.08984,60.2695 11.8203,64 15.5508,64 c 0.8789,0 2.4609,-0.1094 2.4609,-3.3008 0,-2.3906 -1.0312,-5.289 -1.5898,-6.7773 C 12.9688,44.0508 11,37.8594 11,32.9688 11,23.4883 17.8398,21 23.1914,21 c 6.5391,0 10.1094,4.4219 11.7891,6.5781" />
        <path
           id="path3069"
           style="fill:#000000;fill-opacity:1;fill-rule:nonzero;stroke:none"
           d="m 153.621,55 c 1.488,0 3.379,0 3.379,2 0,2 -1.891,2 -3.281,2 l -59.4573,0 c -1.3906,0 -3.2812,0 -3.2812,-2 0,-2 1.8906,-2 3.3789,-2 l 59.2616,0 z m 0.098,-20 c 1.39,0 3.281,0 3.281,2 0,2 -1.891,2 -3.379,2 l -59.2616,0 c -1.4883,0 -3.3711,0 -3.3711,-2 0,-2 1.8906,-2 3.2812,-2" />
        <path
           id="path3071"
           style="fill:#000000;fill-opacity:1;fill-rule:nonzero;stroke:none"
           d="M 224.969,27.5781 C 226.059,23.5508 229.52,21 233.789,21 c 3.461,0 5.75,2.2812 7.332,5.4492 1.68,3.5703 2.981,9.6094 2.981,9.8008 0,0.9883 -0.903,0.9883 -1.204,0.9883 -1,0 -1.097,-0.3985 -1.398,-1.7969 C 240.102,29.8203 238.199,23 234,23 c -2.102,0 -3.102,1.3008 -3.102,4.5898 0,2.1993 1.204,6.8907 2,10.379 l 2.801,10.7929 c 0.301,1.5 1.301,5.2891 1.699,6.7891 0.5,2.3008 1.5,6.0898 1.5,6.6875 0,1.8008 -1.398,2.7031 -2.898,2.7031 -0.5,0 -3.102,-0.1133 -3.898,-3.5 -1.903,-7.293 -6.301,-24.7617 -7.5,-30.0508 C 224.5,30.9883 220.5,23 213.199,23 208,23 207,27.4883 207,31.1797 c 0,5.5898 2.762,13.4687 5.32,20.3515 1.192,2.9883 1.68,4.3907 1.68,6.2774 0,4.4922 -3.16,8.1914 -8.09,8.1914 -9.371,0 -13.019,-14.4102 -13.019,-15.3008 0,-1 0.98,-1 1.179,-1 0.981,0 1.078,0.1992 1.571,1.8125 2.449,8.7578 6.179,12.4883 9.91,12.4883 0.879,0 2.461,-0.1094 2.461,-3.3008 0,-2.3906 -1.032,-5.289 -1.59,-6.7773 C 202.969,44.0508 201,37.8594 201,32.9688 201,23.4883 207.84,21 213.191,21 c 6.539,0 10.11,4.4219 11.789,6.5781" />
        <path
           id="path3073"
           style="fill:#000000;fill-opacity:1;fill-rule:nonzero;stroke:none"
           d="m 283,29.2891 c 0,7.5625 -0.93,12.9804 -4.199,17.8007 C 276.602,50.25 272.191,53 266.5,53 250,53 250,34.2383 250,29.2891 250,24.3398 250,6 266.5,6 283,6 283,24.3398 283,29.2891 z M 266.5,8 c -3.102,0 -7.211,1.85156 -8.551,7.4609 -0.937,4.0391 -0.937,9.6485 -0.937,14.7188 0,5 0,10.1992 1.008,13.9609 1.421,5.4102 5.73,6.8477 8.492,6.8477 3.636,0 7.136,-2.2695 8.359,-6.2266 1.078,-3.7031 1.141,-8.6211 1.141,-14.582 0,-5.0703 0,-10.1289 -0.871,-14.4492 C 273.789,9.5 269.211,7.98828 266.52,7.98828" />
      </g>
    </g>
  </g>
</svg>
