<?xml version="1.0" encoding="UTF-8" standalone="no"?>
<!-- Created with Inkscape (http://www.inkscape.org/) -->

<svg
   xmlns:dc="http://purl.org/dc/elements/1.1/"
   xmlns:cc="http://creativecommons.org/ns#"
   xmlns:rdf="http://www.w3.org/1999/02/22-rdf-syntax-ns#"
   xmlns:svg="http://www.w3.org/2000/svg"
   xmlns="http://www.w3.org/2000/svg"
   xmlns:sodipodi="http://sodipodi.sourceforge.net/DTD/sodipodi-0.dtd"
   xmlns:inkscape="http://www.inkscape.org/namespaces/inkscape"
   width="744.09448819"
   height="1052.3622047"
   id="svg2"
   version="1.1"
   inkscape:version="0.48.2 r9819"
   sodipodi:docname="New document 1">
  <defs
     id="defs4" />
  <sodipodi:namedview
     id="base"
     pagecolor="#ffffff"
     bordercolor="#666666"
     borderopacity="1.0"
     inkscape:pageopacity="0.0"
     inkscape:pageshadow="2"
     inkscape:zoom="0.98994949"
     inkscape:cx="238.59364"
     inkscape:cy="588.61899"
     inkscape:document-units="px"
     inkscape:current-layer="layer1"
     showgrid="false"
     inkscape:window-width="1280"
     inkscape:window-height="677"
     inkscape:window-x="0"
     inkscape:window-y="0"
     inkscape:window-maximized="0" />
  <metadata
     id="metadata7">
    <rdf:RDF>
      <cc:Work
         rdf:about="">
        <dc:format>image/svg+xml</dc:format>
        <dc:type
           rdf:resource="http://purl.org/dc/dcmitype/StillImage" />
        <dc:title></dc:title>
      </cc:Work>
    </rdf:RDF>
  </metadata>
  <g
     inkscape:label="Layer 1"
     inkscape:groupmode="layer"
     id="layer1">
    <rect
       style="fill:none;fill-rule:evenodd;stroke:#000000;stroke-width:0;stroke-linecap:butt;stroke-linejoin:miter;stroke-opacity:1;stroke-miterlimit:4;stroke-dasharray:none"
       id="rect2985"
       width="417.14285"
       height="378.57144"
       x="167.14285"
       y="149.50504" />
    <rect
       y="149.50504"
       x="167.14285"
       height="378.57144"
       width="417.14285"
       id="rect3755"
       style="fill:none;fill-rule:evenodd;stroke:#000000;stroke-width:0;stroke-linecap:butt;stroke-linejoin:miter;stroke-opacity:1;stroke-miterlimit:4;stroke-dasharray:none" />
    <rect
       style="fill:none;fill-rule:evenodd;stroke:#000000;stroke-width:0;stroke-linecap:butt;stroke-linejoin:miter;stroke-opacity:1;stroke-miterlimit:4;stroke-dasharray:none"
       id="rect3757"
       width="417.14285"
       height="378.57144"
       x="167.14285"
       y="149.50504" />
    <rect
       y="149.50504"
       x="167.14285"
       height="381.42859"
       width="395.71429"
       id="rect3759"
       style="fill:none;stroke:#000000;stroke-width:8;stroke-linecap:butt;stroke-linejoin:miter;stroke-miterlimit:4;stroke-opacity:1;stroke-dasharray:none" />
    <path
       style="fill:none;stroke:#000000;stroke-width:5.05018282;stroke-linecap:butt;stroke-linejoin:miter;stroke-miterlimit:4;stroke-opacity:1;stroke-dasharray:none"
       d="M 217.56397,532.77009 216.72175,150.93361"
       id="path3761"
       inkscape:connector-curvature="0" />
    <g
       transform="matrix(1,0,0,-1,121.38116,612.30941)"
       inkscape:label="ink_ext_XXXXXX"
       id="g3790">
      <g
         transform="scale(0.1,0.1)"
         id="g3792">
        <path
           id="path3794"
           style="fill:#000000;fill-opacity:1;fill-rule:nonzero;stroke:none"
           d="m 90.1562,170.953 c 5.7305,0 12.1988,0 12.1988,6.09 0,5.027 -4.3081,5.027 -10.4214,5.027 l -58.168,0 c 8.6289,30.532 28.7305,51.36 61.4102,51.36 l 11.1402,0 c 6.11,0 11.84,0 11.84,6.113 0,5.027 -4.66,5.027 -10.769,5.027 l -12.5823,0 c -46.6914,0 -94.80860625,-35.918 -94.80860625,-90.867 0,-39.5 26.93750625,-67.871 65.01950625,-67.871 23.3399,0 46.6874,14.379 46.6874,18.309 0,1.082 -0.359,5.031 -3.59,5.031 -0.718,0 -1.437,0 -4.668,-2.16 C 92.3047,99.8398 79.0234,93.7305 65.7461,93.7305 c -20.8399,0 -38.8008,15.0815 -38.8008,46.6915 0,12.558 2.8789,26.219 3.9492,30.531 l 59.2696,0"
           inkscape:connector-curvature="0" />
        <path
           id="path3796"
           style="fill:#000000;fill-opacity:1;fill-rule:nonzero;stroke:none"
           d="m 247.004,3.58984 c 0,1.08204 0,1.80078 -6.109,7.89066 -44.891,45.25 -56.372,113.1405 -56.372,168.0815 0,62.5 13.641,124.981 57.813,169.879 4.668,4.309 4.668,5.032 4.668,6.11 0,2.519 -1.438,3.59 -3.59,3.59 -3.59,0 -35.91,-24.418 -57.09,-70.032 -18.328,-39.519 -22.621,-79.367 -22.621,-109.547 0,-28.019 3.942,-71.472 23.703,-112.0503 21.547,-44.1719 52.418,-67.5195125 56.02,-67.5195125 2.16,0 3.59,1.0781225 3.59,3.5898425"
           inkscape:connector-curvature="0" />
        <path
           id="path3798"
           style="fill:#000000;fill-opacity:1;fill-rule:nonzero;stroke:none"
           d="m 284.285,45.9727 c -2.871,-12.2227 -3.59,-14.7305 -19.39,-14.7305 -4.309,0 -8.27,0 -8.27,-6.8125 0,-2.8672 1.801,-4.3086 4.672,-4.3086 9.699,0 20.109,1.082 30.168,1.082 11.859,0 24.058,-1.082 35.558,-1.082 1.782,0 6.454,0 6.454,7.1914 0,3.9375 -3.59,3.9375 -8.614,3.9375 -17.968,0 -17.968,2.5195 -17.968,5.75 0,4.3125 15.089,62.8594 17.609,71.832 4.66,-10.4101 14.723,-22.9804 33.031,-22.9804 41.668,0 86.559,52.4414 86.559,105.2304 0,33.75 -20.469,57.449 -47.77,57.449 -17.969,0 -35.199,-12.922 -47.051,-26.922 -3.589,19.391 -19.046,26.922 -32.328,26.922 -16.519,0 -23.34,-14 -26.582,-20.469 -6.468,-12.203 -11.117,-33.75 -11.117,-34.832 0,-3.589 3.578,-3.589 4.301,-3.589 3.59,0 3.949,0.359 6.109,8.269 6.11,25.481 13.297,42.731 26.219,42.731 6.109,0 11.141,-2.871 11.141,-16.532 0,-8.25 -1.082,-12.199 -2.52,-18.308 l -40.23,-159.8088 0.019,-0.0195 z m 63.219,155.8593 c 2.519,9.699 12.199,19.77 18.672,25.141 12.558,11.136 22.98,13.66 29.09,13.66 14.359,0 22.98,-12.582 22.98,-33.774 0,-21.187 -11.859,-62.476 -18.312,-76.136 -12.219,-25.141 -29.45,-36.9808 -42.75,-36.9808 -23.7,0 -28.368,29.8088 -28.368,31.9688 0,0.699 0,1.422 1.079,5.73 l 17.609,70.391"
           inkscape:connector-curvature="0" />
        <path
           id="path3800"
           style="fill:#000000;fill-opacity:1;fill-rule:nonzero;stroke:none"
           d="m 675.016,172.391 100.199,0 c 5.031,0 11.84,0 11.84,7.171 0,7.188 -6.809,7.188 -11.84,7.188 l -100.199,0 0,100.562 c 0,5.028 0,11.84 -7.192,11.84 -7.187,0 -7.187,-6.812 -7.187,-11.84 l 0,-100.562 -100.551,0 c -5.031,0 -11.859,0 -11.859,-7.188 0,-7.171 6.828,-7.171 11.859,-7.171 l 100.551,0 0,-100.559 c 0,-5.0312 0,-11.8593 7.187,-11.8593 7.192,0 7.192,6.8281 7.192,11.8593 l 0,100.559"
           inkscape:connector-curvature="0" />
        <path
           id="path3802"
           style="fill:#000000;fill-opacity:1;fill-rule:nonzero;stroke:none"
           d="m 1044.86,340.473 c -2.5,4.66 -3.22,6.449 -9.34,6.449 -6.11,0 -6.82,-1.801 -9.34,-6.449 L 904.797,96.9727 c -1.801,-3.2305 -1.801,-3.9532 -1.801,-4.3125 0,-2.8672 2.16,-2.8672 7.91,-2.8672 l 249.254,0 c 5.73,0 7.89,0 7.89,2.8789 0,0.3593 0,1.0781 -1.8,4.3086 l -121.39,243.4995 0,-0.007 z m -20.82,-29.461 96.6,-193.942 -193.574,0 96.974,193.942"
           inkscape:connector-curvature="0" />
        <path
           id="path3804"
           style="fill:#000000;fill-opacity:1;fill-rule:nonzero;stroke:none"
           d="m 1201.29,45.9727 c -2.88,-12.2227 -3.59,-14.7305 -19.4,-14.7305 -4.3,0 -8.27,0 -8.27,-6.8125 0,-2.8672 1.81,-4.3086 4.68,-4.3086 9.7,0 20.11,1.082 30.16,1.082 11.86,0 24.06,-1.082 35.56,-1.082 1.78,0 6.46,0 6.46,7.1914 0,3.9375 -3.59,3.9375 -8.62,3.9375 -17.97,0 -17.97,2.5195 -17.97,5.75 0,4.3125 15.09,62.8594 17.61,71.832 4.66,-10.4101 14.73,-22.9804 33.04,-22.9804 41.66,0 86.55,52.4414 86.55,105.2304 0,33.75 -20.47,57.449 -47.77,57.449 -17.96,0 -35.2,-12.922 -47.05,-26.922 -3.59,19.391 -19.04,26.922 -32.32,26.922 -16.52,0 -23.34,-14 -26.59,-20.469 -6.47,-12.203 -11.11,-33.75 -11.11,-34.832 0,-3.589 3.57,-3.589 4.3,-3.589 3.59,0 3.95,0.359 6.11,8.269 6.11,25.481 13.29,42.731 26.22,42.731 6.1,0 11.14,-2.871 11.14,-16.532 0,-8.25 -1.09,-12.199 -2.52,-18.308 l -40.23,-159.8088 0.02,-0.0195 z m 63.21,155.8593 c 2.52,9.699 12.2,19.77 18.68,25.141 12.55,11.136 22.98,13.66 29.09,13.66 14.35,0 22.98,-12.582 22.98,-33.774 0,-21.187 -11.86,-62.476 -18.32,-76.136 -12.22,-25.141 -29.45,-36.9808 -42.75,-36.9808 -23.7,0 -28.36,29.8088 -28.36,31.9688 0,0.699 0,1.422 1.07,5.73 l 17.61,70.391"
           inkscape:connector-curvature="0" />
        <path
           id="path3806"
           style="fill:#000000;fill-opacity:1;fill-rule:nonzero;stroke:none"
           d="m 1469.93,179.562 c 0,28.02 -3.95,71.469 -23.7,112.059 -21.55,44.172 -52.44,67.52 -56.03,67.52 -2.16,0 -3.59,-1.438 -3.59,-3.59 0,-1.078 0,-1.801 6.82,-8.27 35.19,-35.551 55.68,-92.66 55.68,-167.719 0,-61.41 -13.31,-124.6206 -57.84,-169.87059 -4.66,-4.30079 -4.66,-5.01953 -4.66,-6.08985 0,-2.16015 1.44,-3.5898412 3.59,-3.5898412 3.59,0 35.91,24.4179812 57.1,70.0312812 18.31,39.5 22.63,79.379 22.63,109.527"
           inkscape:connector-curvature="0" />
      </g>
    </g>
    <text
       xml:space="preserve"
       style="font-size:55.25081635px;font-style:normal;font-weight:normal;line-height:125%;letter-spacing:0px;word-spacing:0px;fill:#000000;fill-opacity:1;stroke:none;font-family:Bitstream Vera Sans"
       x="-592.49066"
       y="-168.83008"
       id="text3817"
       sodipodi:linespacing="125%"
       transform="matrix(0,-0.96065677,-1.0409545,0,0,0)"><tspan
         sodipodi:role="line"
         id="tspan3819"
         x="-592.49066"
         y="-168.83008">{</tspan></text>
  </g>
</svg>
