<?xml version="1.0" encoding="UTF-8" standalone="no"?>
<!-- Created with Inkscape (http://www.inkscape.org/) -->

<svg
   xmlns:dc="http://purl.org/dc/elements/1.1/"
   xmlns:cc="http://creativecommons.org/ns#"
   xmlns:rdf="http://www.w3.org/1999/02/22-rdf-syntax-ns#"
   xmlns:svg="http://www.w3.org/2000/svg"
   xmlns="http://www.w3.org/2000/svg"
   xmlns:sodipodi="http://sodipodi.sourceforge.net/DTD/sodipodi-0.dtd"
   xmlns:inkscape="http://www.inkscape.org/namespaces/inkscape"
   width="601.92908"
   height="601.92908"
   id="svg2"
   version="1.1"
   inkscape:version="0.48.2 r9819"
   sodipodi:docname="New document 1">
  <defs
     id="defs4">
    <marker
       inkscape:stockid="Arrow1Mend"
       orient="auto"
       refY="0"
       refX="0"
       id="Arrow1Mend"
       style="overflow:visible">
      <path
         id="path3973"
         d="M 0,0 5,-5 -12.5,0 5,5 0,0 z"
         style="fill-rule:evenodd;stroke:#000000;stroke-width:1pt;marker-start:none"
         transform="matrix(-0.4,0,0,-0.4,-4,0)"
         inkscape:connector-curvature="0" />
    </marker>
  </defs>
  <sodipodi:namedview
     id="base"
     pagecolor="#ffffff"
     bordercolor="#666666"
     borderopacity="1.0"
     inkscape:pageopacity="0.0"
     inkscape:pageshadow="2"
     inkscape:zoom="0.49497475"
     inkscape:cx="-65.487421"
     inkscape:cy="188.60903"
     inkscape:document-units="px"
     inkscape:current-layer="layer1"
     showgrid="false"
     fit-margin-top="0"
     fit-margin-left="0"
     fit-margin-right="0"
     fit-margin-bottom="0"
     inkscape:window-width="1280"
     inkscape:window-height="752"
     inkscape:window-x="0"
     inkscape:window-y="0"
     inkscape:window-maximized="0" />
  <metadata
     id="metadata7">
    <rdf:RDF>
      <cc:Work
         rdf:about="">
        <dc:format>image/svg+xml</dc:format>
        <dc:type
           rdf:resource="http://purl.org/dc/dcmitype/StillImage" />
        <dc:title></dc:title>
      </cc:Work>
    </rdf:RDF>
  </metadata>
  <g
     inkscape:label="Layer 1"
     inkscape:groupmode="layer"
     id="layer1"
     transform="translate(-80.873116,-119.04214)">
    <rect
       style="fill:none;stroke:#000000;stroke-width:12;stroke-linejoin:round;stroke-miterlimit:4;stroke-opacity:1;stroke-dasharray:none"
       id="rect2985"
       width="589.92908"
       height="589.92908"
       x="86.873116"
       y="125.04214" />
    <path
       style="fill:none;stroke:#000000;stroke-width:10;stroke-linecap:butt;stroke-linejoin:miter;stroke-miterlimit:4;stroke-opacity:1;stroke-dasharray:20, 10;stroke-dashoffset:0"
       d="M 377.79705,127.06245 88.893424,710.93062"
       id="path2987"
       inkscape:connector-curvature="0" />
    <path
       style="fill:none;stroke:#000000;stroke-width:6;stroke-linecap:butt;stroke-linejoin:miter;stroke-miterlimit:4;stroke-opacity:1;stroke-dasharray:none;marker-start:none;marker-end:url(#Arrow1Mend)"
       d="M 292.94424,692.74788 452.54834,393.74272"
       id="path3779"
       inkscape:connector-curvature="0" />
    <g
       transform="matrix(2.5,0,0,-2.5,419.14046,584.88689)"
       inkscape:label="ink_ext_XXXXXX"
       id="g4451">
      <g
         transform="scale(0.1,0.1)"
         id="g4453">
        <path
           id="path4455"
           style="fill:#000000;fill-opacity:1;fill-rule:nonzero;stroke:none"
           d="m 196.078,274.031 c 0,26.922 -19.75,49.192 -48.84,49.192 -20.832,0 -30.871,-5.731 -43.449,-15.082 -19.7499,-14.36 -39.4999,-49.2 -46.332,-76.5 L 0.367188,3.59375 C 0.0078125,2.15234 1.78906,0 4.66797,0 7.54688,0 8.61719,0.722656 8.97656,1.80078 L 34.1172,100.934 C 40.9492,79.3828 56.75,66.0938 82.957,66.0938 c 26.223,0 53.16,12.5781 69.313,28.3789 17.25,16.5193 28.73,39.5003 28.73,66.0783 0,25.859 -13.281,44.531 -26.223,53.519 20.832,11.864 41.301,34.133 41.301,59.981 l 0,-0.02 z m -64.64,-59.629 c -4.668,-1.8 -8.622,-2.519 -17.231,-2.519 -5.027,0 -12.219,-0.36 -15.8086,1.437 0.7188,3.59 13.6606,2.883 17.6096,2.883 7.531,0 10.769,0 15.441,-1.801 l -0.011,0 z m 44.531,67.879 c 0,-25.14 -13.641,-51 -32.313,-62.121 -9.699,3.59 -16.886,4.313 -27.656,4.313 -7.551,0 -27.6602,0.359 -27.6602,-11.5 -0.3632,-10.063 18.3082,-8.981 24.7772,-8.981 13.281,0 18.672,0.36 29.449,4.668 13.641,-12.918 15.442,-24.058 15.801,-40.578 0.723,-20.832 -7.91,-47.77 -17.949,-61.781 -14.02,-19.3908 -38.078,-32.3088 -58.5508,-32.3088 -27.3008,0 -40.9375,20.8281 -40.9375,46.3278 0,3.59 0,8.981 1.7969,15.801 L 65.707,226.98 c 7.9102,30.891 33.75,88 76.859,88 20.832,0 33.391,-11.136 33.391,-32.687"
           inkscape:connector-curvature="0" />
      </g>
    </g>
    <text
       xml:space="preserve"
       style="font-size:60px;font-style:normal;font-weight:normal;line-height:125%;letter-spacing:0px;word-spacing:0px;fill:#000000;fill-opacity:1;stroke:none;font-family:Sans"
       x="448.82071"
       y="308.40634"
       id="text4460"
       sodipodi:linespacing="125%"><tspan
         sodipodi:role="line"
         id="tspan4462"
         x="448.82071"
         y="308.40634">f = 1</tspan></text>
    <text
       xml:space="preserve"
       style="font-size:60px;font-style:normal;font-weight:normal;line-height:125%;letter-spacing:0px;word-spacing:0px;fill:#000000;fill-opacity:1;stroke:none;font-family:Sans"
       x="133.39433"
       y="225.43224"
       id="text4464"
       sodipodi:linespacing="125%"><tspan
         sodipodi:role="line"
         id="tspan4466"
         x="133.39433"
         y="225.43224">f = 0</tspan></text>
  </g>
</svg>
