<?xml version="1.0" encoding="UTF-8" standalone="no"?>
<!-- Created with Inkscape (http://www.inkscape.org/) -->

<svg
   xmlns:dc="http://purl.org/dc/elements/1.1/"
   xmlns:cc="http://creativecommons.org/ns#"
   xmlns:rdf="http://www.w3.org/1999/02/22-rdf-syntax-ns#"
   xmlns:svg="http://www.w3.org/2000/svg"
   xmlns="http://www.w3.org/2000/svg"
   xmlns:sodipodi="http://sodipodi.sourceforge.net/DTD/sodipodi-0.dtd"
   xmlns:inkscape="http://www.inkscape.org/namespaces/inkscape"
   height="60.023911"
   id="svg1468"
   inkscape:version="0.47pre4 r22446"
   sodipodi:docname="pencil.svg"
   sodipodi:version="0.32"
   version="1.0"
   width="58.964413"
   x="0.00000000"
   y="0.00000000"
   inkscape:output_extension="org.inkscape.output.svg.inkscape"
   inkscape:export-filename="/home/stani/sync/python/phatch/trunk/images/source/stani/icons/pencil.png"
   inkscape:export-xdpi="23.990438"
   inkscape:export-ydpi="23.990438">
  <metadata
     id="metadata3">
    <rdf:RDF>
      <cc:Work
         rdf:about="">
        <dc:title>pen</dc:title>
        <dc:description />
        <dc:subject>
          <rdf:Bag />
        </dc:subject>
        <dc:publisher>
          <cc:Agent
             rdf:about="http://www.openclipart.org/">
            <dc:title>Stani</dc:title>
          </cc:Agent>
        </dc:publisher>
        <dc:creator>
          <cc:Agent>
            <dc:title>Stani</dc:title>
          </cc:Agent>
        </dc:creator>
        <dc:rights>
          <cc:Agent>
            <dc:title>Stani</dc:title>
          </cc:Agent>
        </dc:rights>
        <dc:date />
        <dc:format>image/svg+xml</dc:format>
        <dc:type
           rdf:resource="http://purl.org/dc/dcmitype/StillImage" />
        <cc:license
           rdf:resource="gpl" />
        <dc:language />
      </cc:Work>
    </rdf:RDF>
  </metadata>
  <sodipodi:namedview
     bordercolor="#666666"
     borderopacity="1.0"
     id="base"
     inkscape:current-layer="svg1468"
     inkscape:cx="29.482206"
     inkscape:cy="30.011955"
     inkscape:pageopacity="0.0"
     inkscape:pageshadow="2"
     inkscape:window-height="1002"
     inkscape:window-width="1680"
     inkscape:zoom="12.545001"
     pagecolor="#ffffff"
     showgrid="false"
     inkscape:window-x="0"
     inkscape:window-y="25"
     inkscape:window-maximized="1" />
  <defs
     id="defs1470">
    <inkscape:perspective
       sodipodi:type="inkscape:persp3d"
       inkscape:vp_x="0 : 93.75 : 1"
       inkscape:vp_y="0 : 1000 : 0"
       inkscape:vp_z="187.5 : 93.75 : 1"
       inkscape:persp3d-origin="93.75 : 62.5 : 1"
       id="perspective14" />
  </defs>
  <path
     d="M 39.670861,6.5023365 L 6.944216,39.228979 L 1.8745,58.149409 L 19.870579,53.327379 L 53.183237,19.469659 C 53.183237,19.469659 61.19389,11.195948 54.273357,4.3221035 C 47.770281,-2.1371035 39.992121,6.1960925 39.670861,6.5023365 z"
     id="path2656"
     style="fill:none;fill-opacity:0.75;fill-rule:evenodd;stroke:#000000;stroke-width:3.74900007;stroke-linecap:butt;stroke-linejoin:miter;stroke-miterlimit:4;stroke-dasharray:none;stroke-opacity:1"
     sodipodi:nodetypes="cccccsc" />
  <path
     d="M 22.329812,49.956209 C 22.329812,49.956209 18.425575,51.601719 16.641684,49.755389 C 14.857792,47.909049 15.735441,44.164869 15.735441,44.164869 C 15.735441,44.164869 12.572098,45.801809 11.282145,43.949739 C 9.992191,42.097669 9.466768,41.036899 10.152549,39.161949 C 10.838338,37.286999 10.32078,36.492849 10.32078,36.492849"
     id="path2658"
     style="fill:none;fill-opacity:0.75;fill-rule:evenodd;stroke:#000000;stroke-width:1.91453815;stroke-linecap:butt;stroke-linejoin:miter;stroke-miterlimit:4;stroke-dasharray:none;stroke-opacity:1" />
  <path
     style="fill:none;fill-rule:evenodd;stroke:#000000;stroke-width:3.74900007;stroke-linecap:butt;stroke-linejoin:miter;stroke-miterlimit:4;stroke-dasharray:none;stroke-opacity:1"
     d="M 35.06244,10.087111 C 50.913048,9.5420525 48.866478,23.168509 48.688888,23.168509"
     id="path3172"
     sodipodi:nodetypes="cc" />
  <path
     style="fill:#000000;fill-opacity:1;fill-rule:nonzero;stroke:none;stroke-width:3.74900007;marker:none;visibility:visible;display:inline;overflow:visible;enable-background:accumulate"
     d="m 3.9416675,56.494767 c 0,-0.06548 0.5419033,-6.173319 1.6497513,-10.305814 1.220222,-4.551671 2.5804017,-7.474358 2.7035067,-7.600731 0.190421,-0.195478 1.4185998,0.458009 1.4234858,1.337643 0.0044,0.790399 -0.056376,1.795788 0.2628892,2.478052 0.4742985,1.013555 0.6375475,2.278864 1.1195785,2.684466 0.20239,0.170302 0.57441,0.37882 0.826715,0.46338 0.510822,0.171202 1.857455,0.213352 2.372451,0.07426 l 0.334141,-0.09024 0,0.836273 c 0,2.990971 1.884184,4.426288 4.176951,4.426288 0.29231,0 1.446127,1.876206 1.37815,1.939189 -0.06349,0.05882 -4.115255,0.77279 -7.924465,1.787443 -3.8092103,1.014657 -7.38604,0.900343 -7.502989,0.934035 -0.11695,0.03369 -0.212636,0.0077 -0.212636,-0.0578 l -0.6075295,1.093556 z"
     id="path4048"
     sodipodi:nodetypes="csssssscccsssscc" />
</svg>
