<?xml version="1.0" encoding="UTF-8" standalone="no"?>
<!-- Generator: Adobe Illustrator 12.0.0, SVG Export Plug-In . SVG Version: 6.00 Build 51448)  -->

<svg
   xmlns:dc="http://purl.org/dc/elements/1.1/"
   xmlns:cc="http://creativecommons.org/ns#"
   xmlns:rdf="http://www.w3.org/1999/02/22-rdf-syntax-ns#"
   xmlns:svg="http://www.w3.org/2000/svg"
   xmlns="http://www.w3.org/2000/svg"
   xmlns:sodipodi="http://sodipodi.sourceforge.net/DTD/sodipodi-0.dtd"
   xmlns:inkscape="http://www.inkscape.org/namespaces/inkscape"
   height="265"
   id="Layer_1"
   inkscape:version="0.47pre4 r22446"
   sodipodi:docname="rana03_architetto_france_01.svg"
   sodipodi:version="0.32"
   space="preserve"
   style="overflow:visible"
   version="1.1"
   viewBox="0 0 264.99999 265"
   width="265">
  <metadata
     id="metadata3">
    <rdf:RDF>
      <cc:Work
         rdf:about="">
        <dc:title>Rana03</dc:title>
        <dc:description />
        <dc:subject>
          <rdf:Bag>
            <rdf:li>architetto francesco rollandin</rdf:li>
            <rdf:li>animal</rdf:li>
          </rdf:Bag>
        </dc:subject>
        <dc:publisher>
          <cc:Agent
             rdf:about="http://www.openclipart.org/">
            <dc:title>Open Clip Art Library</dc:title>
          </cc:Agent>
        </dc:publisher>
        <dc:creator>
          <cc:Agent>
            <dc:title>Architetto Francesco Rollandin</dc:title>
          </cc:Agent>
        </dc:creator>
        <dc:rights>
          <cc:Agent>
            <dc:title>Architetto Francesco Rollandin</dc:title>
          </cc:Agent>
        </dc:rights>
        <dc:date />
        <dc:format>image/svg+xml</dc:format>
        <dc:type
           rdf:resource="http://purl.org/dc/dcmitype/StillImage" />
        <cc:license
           rdf:resource="http://web.resource.org/cc/PublicDomain" />
        <dc:language>en</dc:language>
      </cc:Work>
      <cc:License
         rdf:about="http://web.resource.org/cc/PublicDomain">
        <cc:permits
           rdf:resource="http://web.resource.org/cc/Reproduction" />
        <cc:permits
           rdf:resource="http://web.resource.org/cc/Distribution" />
        <cc:permits
           rdf:resource="http://web.resource.org/cc/DerivativeWorks" />
      </cc:License>
    </rdf:RDF>
  </metadata>
  <defs
     id="defs136">
    <inkscape:perspective
       sodipodi:type="inkscape:persp3d"
       inkscape:vp_x="0 : 206.084 : 1"
       inkscape:vp_y="0 : 1000 : 0"
       inkscape:vp_z="353.13901 : 206.084 : 1"
       inkscape:persp3d-origin="176.5695 : 137.38933 : 1"
       id="perspective73" />
  </defs>
  <sodipodi:namedview
     bordercolor="#666666"
     borderopacity="1.0"
     id="base"
     inkscape:current-layer="Layer_1"
     inkscape:cx="49.5695"
     inkscape:cy="177.57876"
     inkscape:pageopacity="0.0"
     inkscape:pageshadow="2"
     inkscape:window-height="714"
     inkscape:window-width="1097"
     inkscape:window-x="22"
     inkscape:window-y="29"
     inkscape:zoom="1"
     pagecolor="#ffffff"
     showgrid="false"
     inkscape:window-maximized="0" />
  <g
     id="g3"
     transform="matrix(0.62110685,0,0,0.62110685,22.832636,4.499007)">
    <path
       d="m 189.702,196.712 c 19.538,-3.126 39.02,-5.986 58.731,-7.777 9.101,-0.827 18.717,-1.058 27.575,1.667 5.676,1.746 9.716,2.437 13.869,6.588 4.327,4.327 3.354,7.14 3.354,13.313 0,7.607 -10.625,17.913 -15.728,23.014 -6.252,6.25 -12.354,12.708 -18.782,18.775 -14.415,13.606 -30.984,24.793 -46.973,36.416 17.216,1.909 35.508,5.012 52.404,8.766 20.675,4.594 39.461,5.609 60.623,5.609 4.312,0 8.433,1.916 13.031,1.916 4.695,0 10.064,-0.002 13.688,3.62 3.522,3.521 0.989,8.107 -3.906,9.086 -5.356,1.071 -9.569,-0.775 -14.095,-3.603 -7.528,-4.702 -18.198,-0.62 -26.397,1.72 -8.638,2.466 -17.182,6.032 -26.326,5.468 11.767,7.565 27.897,11.763 41.381,15.132 7.061,1.764 13.525,6.284 20.755,8.255 3.896,1.062 15.093,11.086 7.095,14.286 -5.937,2.375 -14.183,2.493 -18.796,-2.777 -6.119,-6.991 -10.691,-7.663 -19.499,-10.179 -13.78,-3.938 -28.257,-8.263 -42.438,-10.342 8.065,8.591 12.592,21.938 18.692,32.102 4.287,7.142 6.979,7.344 15.282,9.897 7.536,2.318 2.355,10.706 -3.39,10.706 -4.023,0 -16.034,0.526 -15.148,-6.547 1.044,-8.333 -1.81,-10.494 -7.538,-16.222 -4.535,-4.534 -16.941,-26.104 -22.988,-26.104 -26.39,0 -51.02,-12.458 -77.187,-12.458 -11.476,0 -25.348,3.814 -35.699,-2.396 -15.55,-9.328 2.267,-23.523 10.579,-29.458 11.11,-7.934 21.774,-16.659 33.996,-22.769 -5.787,0.331 -27.218,25.289 -30.428,22.348 -6.919,-6.341 -13.837,-12.681 -20.756,-19.021 -5.094,-4.668 -7.216,-14.019 -10.023,-20.254 -1.333,-2.961 2.431,-16.218 4.776,-18.742 6.182,-6.655 12.013,-12.766 19.044,-18.476 12.487,-10.139 26.455,-15.557 41.222,-21.559"
       id="path5"
       style="fill:#008700;fill-rule:evenodd" />
    <path
       d="m 142.731,13.677 c -18.334,18.326 -44.346,29.451 -59.674,50.52 -5.317,7.309 -6.564,9.914 -7.376,18.852 -0.535,5.881 8.746,8.704 5.043,14.698 -7.429,12.023 -14.703,24.15 -22.451,35.971 -14.138,21.571 -34.141,45.776 -41.447,70.82 -2.099,7.196 -4.199,14.392 -6.298,21.588 -1.886,6.465 -0.085,15.876 -0.085,22.618 0,10.581 2.773,24.453 6.982,34.184 6.047,13.98 9.809,28.854 21.351,38.951 8.688,7.6 28.918,8.071 39.522,9.768 27.226,4.355 55.571,1.443 82.793,-1.188 11.117,-1.075 24.288,-3.288 34.476,-7.717 6.899,-2.998 13.798,-5.997 20.696,-8.995 4.062,-1.766 8.784,-15.907 10.902,-19.839 12.084,-22.433 19.097,-48.955 19.097,-74.531 0,-24.708 -2.209,-49.067 -3.853,-73.71 -0.774,-11.627 -4.854,-26.125 1.455,-36.638 6.951,-11.585 12.469,-16.979 9.249,-31.465 C 250.288,64.853 244.333,59.226 236.715,48.841 228.881,38.162 221.331,26.609 211.536,17.634 200.869,7.859 191.884,3.189 177.734,0.361 165.727,-2.042 152.21,8.19 142.731,13.677"
       id="path7"
       style="fill:#008700;fill-rule:evenodd" />
    <path
       d="m 143.689,16.551 c -10.972,8.774 -21.676,17.669 -33.114,25.836 -9.451,6.749 -20.214,14.541 -26.526,24.456 -3.323,5.22 -6.971,11.06 -4.587,17.747 2.503,7.024 9.533,6.322 5.345,13.649 -7.142,12.494 -14.119,25.078 -21.709,37.305 -14.045,22.621 -31.072,46.817 -37.367,73.035 -3.842,15.999 -4.432,27.855 -3.797,44.354 0.429,11.146 5.86,24.817 10.307,35.19 4.912,11.457 8.694,30.463 21.777,35.367 12.713,4.765 25.52,7.778 39.117,8.785 26.513,1.963 55.535,2.809 81.483,-3.917 14.812,-3.84 27.602,-8.51 41.646,-14.614 3.689,-1.604 7.965,-14.387 9.867,-17.917 3.002,-5.574 5.377,-10.974 7.733,-16.865 10.692,-26.725 12.398,-53.379 12.398,-81.916 0,-22.458 -3.456,-45.449 -4.952,-67.887 -0.875,-13.112 1.664,-17.693 8.307,-28.758 6.264,-10.438 4.233,-21.064 0.281,-31.929 -3.535,-9.721 -13.819,-19.367 -20.31,-27.478 -7.44,-9.298 -14.592,-18.326 -23.021,-26.751 -6.734,-6.732 -18.769,-13.761 -28.822,-11.987 -5.128,0.904 -12.564,0.726 -17.001,3.527 -5.686,3.591 -11.37,7.179 -17.055,10.768"
       id="path9"
       style="fill:#008c00;fill-rule:evenodd" />
    <path
       d="m 143.689,18.468 c -9.378,9.375 -20.065,16.444 -30.477,24.623 -9.202,7.228 -23.074,15.718 -27.968,26.483 -2.152,4.734 -5.167,12.12 -0.45,16.364 7.775,6.995 8.862,5.924 3.842,14.707 -7.3,12.771 -14.602,25.54 -21.856,38.337 -13.25,23.375 -27.139,46.587 -31.45,73.524 -4.252,26.568 -3.081,52.572 8.588,77.359 4.81,10.218 9.708,29.91 21.396,34.584 12.652,5.059 25.274,7.926 38.881,9.015 28.556,2.284 55.751,-0.698 83.374,-8.134 11.003,-2.962 26.241,-6.629 31.775,-16.904 7.396,-13.73 13.527,-26.981 19.321,-41.464 9.051,-22.622 9.015,-52.538 7.1,-76.46 -1.859,-23.221 -3.463,-46.457 -5.013,-69.7 -0.698,-10.465 8.249,-15.68 11.261,-24.71 2.512,-7.53 1.066,-23.582 -4.103,-30.042 -13.611,-17.009 -26.617,-38.803 -43.828,-52.372 -20.686,-16.309 -40.32,-6.827 -60.393,4.79"
       id="path11"
       style="fill:#009400;fill-rule:evenodd" />
    <path
       d="m 143.689,20.385 c -18.26,18.252 -46.75,31.179 -58.484,54.639 -2.906,5.811 2.982,11.293 7.198,14.358 7.644,5.557 3.297,7.288 -1.237,15.221 -7.33,12.823 -14.527,25.646 -21.479,38.676 -12.181,22.83 -23.601,49.222 -25.599,75.187 -2.052,26.667 3.086,53.28 14.161,77.639 6.711,14.76 9.609,25.361 24.692,32.319 11.856,5.471 28.33,4.99 41.19,6.159 23.871,2.17 53.758,-3.396 75.504,-13.276 4.188,-1.903 15.189,-4.493 17.422,-8.637 4.131,-7.67 8.263,-15.339 12.394,-23.009 6.066,-11.262 9.901,-23.966 12.495,-36.41 5.597,-26.847 4.464,-53.33 2.397,-80.497 -0.705,-9.269 -1.364,-18.543 -1.982,-27.818 -0.701,-10.509 -3.598,-22.527 -0.234,-32.614 3.141,-9.417 10.508,-13.789 9.886,-24.856 C 251.373,76.09 247.664,67.899 240.686,59.177 228.94,44.5 217.802,22.02 200.851,12.896 179.289,1.289 163.639,9.415 143.689,20.385"
       id="path13"
       style="fill:#009900;fill-rule:evenodd" />
    <path
       d="M 144.648,23.259 C 131.2,34.012 117.616,44.661 104.39,55.678 c -6.916,5.761 -12.598,11.72 -16.266,19.968 -3.83,8.613 9.814,13.656 15.303,16.61 -26.966,47.175 -56.275,98.447 -47.931,154.766 2.082,14.05 6.25,26.891 10.468,40.479 3.409,10.979 9.806,25.49 17.333,34.268 15.732,18.35 56.518,14.152 77.697,10.471 12.652,-2.199 26.128,-4.61 37.796,-10.165 3.766,-1.792 15.944,-5.092 17.888,-8.699 4.061,-7.538 8.12,-15.075 12.181,-22.613 11.863,-22.023 17.403,-48.859 17.403,-73.768 0,-26.999 -2.684,-53.8 -4.479,-80.735 -0.376,-5.646 -2.786,-14.548 -0.973,-19.986 2.162,-6.486 7.441,-10.817 9.586,-17.249 3.721,-11.161 -0.347,-25.993 -7.591,-35.045 -6.462,-8.075 -12.224,-16.905 -18.887,-24.778 -5.954,-7.034 -13.206,-18.224 -21.29,-22.938 -8.563,-4.994 -17.429,-10.086 -27.741,-7.509 -11.959,2.989 -19.74,7.876 -30.239,14.504"
       id="path15"
       style="fill:#00a100;fill-rule:evenodd" />
    <path
       d="m 144.648,25.176 c -11.513,11.51 -24.899,20.423 -37.391,30.829 -6.886,5.736 -13.039,11.607 -16.239,20.138 -3.304,8.806 11.425,12.681 17.202,15.156 -23.969,44.138 -54.398,99.319 -42.763,151.663 5.894,26.516 13.04,56.286 29.112,78.774 15.538,21.74 55.316,13.206 77.167,9.045 12.734,-2.425 24.789,-7.151 36.324,-12.918 7.23,-3.613 8.556,-4.376 12.317,-11.359 3.321,-6.165 7.394,-12.315 9.998,-18.824 10.881,-27.197 15.885,-52.551 15.885,-81.915 0,-26.976 -3.459,-54.208 -5.255,-81.138 -0.927,-13.902 10.047,-21.5 10.047,-35.153 0,-14.451 -8.17,-24.11 -17.01,-34.306 C 222.187,41.494 214.175,23.036 197.368,14.637 177.471,4.689 161.64,14.448 144.648,25.176"
       id="path17"
       style="fill:#14a600;fill-rule:evenodd" />
    <path
       d="m 145.606,27.093 c -12.675,11.403 -25.654,22.588 -39.3,32.818 -6.941,5.204 -11.118,10.665 -13.225,19.09 -2.086,8.342 15.592,10.254 19.932,11.339 -23.54,47.065 -48.539,98.36 -36.487,152.579 6.139,27.615 15.107,53.425 29.218,78.109 11.681,20.436 53.579,17.393 72.78,9.715 10.845,-4.337 29.404,-9.005 38.021,-17.12 4.632,-4.362 7.605,-14.118 10.621,-19.717 3.005,-5.578 5.233,-11.281 7.592,-17.177 10.131,-25.322 12.618,-52.859 11.505,-80.018 -0.558,-13.613 -2.156,-27.291 -3.128,-40.889 -0.871,-12.204 -4.32,-26.719 -2.624,-38.651 0.824,-5.8 5.54,-11.079 8.131,-16.255 2.914,-5.824 1.254,-13.345 0.568,-19.521 C 247.769,68.422 235.186,57.73 227.811,47.676 217.576,33.722 207.097,21.742 192.115,13.006 c -6.674,-3.892 -18.309,0.092 -24.98,1.759 -7.832,1.957 -14.753,8.05 -21.529,12.328"
       id="path19"
       style="fill:#2ead00;fill-rule:evenodd" />
    <path
       d="M 145.606,29.968 C 133.153,41.033 119.173,50.641 107.424,62.387 103.521,66.29 92.449,75.134 94.8,81.715 c 2.405,6.731 18.845,6.813 23.965,7.667 -24.034,48.052 -45.716,98.929 -32.039,153.622 6.893,27.563 16.836,53.085 30.123,78.286 13.118,24.882 51.891,14.37 72.375,5.749 11.831,-4.979 24.936,-8.988 31.155,-20.536 7.239,-13.438 13.085,-26.541 18.759,-40.724 9.15,-22.87 8.378,-53.4 6.449,-77.5 -1.123,-14.025 -2.139,-28.055 -3.141,-42.09 -0.89,-12.448 -4.354,-26.098 1.4,-37.606 2.877,-5.754 6.952,-8.273 5.77,-15.368 -1.187,-7.122 -2.024,-13.11 -4.513,-19.951 -3.584,-9.854 -16.304,-23.038 -23.137,-31.233 -8.623,-10.343 -19.649,-26.574 -34.29,-27.699 -16.726,-1.286 -28.39,6.999 -42.07,15.636"
       id="path21"
       style="fill:#47b500;fill-rule:evenodd" />
    <path
       d="m 135.061,21.343 c -8.471,-2.42 -10.666,-0.038 -14.08,7.927 -2.149,5.016 -1.464,12.949 2.577,16.989 11.002,11 29.574,0.017 40.262,-4.792 -11.372,-4.966 -18.696,-13.491 -28.759,-20.124"
       id="path23"
       style="fill:#f0f0f0;fill-rule:evenodd;stroke:#000000;stroke-width:0;stroke-linecap:square;stroke-miterlimit:10" />
    <path
       d="m 135.061,21.343 c -8.471,-2.42 -10.666,-0.038 -14.08,7.927 -2.149,5.016 -1.464,12.949 2.577,16.989 11.002,11 29.574,0.017 40.262,-4.792 -11.372,-4.966 -18.696,-13.491 -28.759,-20.124"
       id="path25"
       style="fill:#f0f0f0;fill-rule:evenodd;stroke:#000000;stroke-width:0;stroke-linecap:square;stroke-miterlimit:10" />
    <path
       d="m 195.455,41.467 c 5.82,1.561 44.154,2.745 39.782,11.5 -3.841,7.694 -49.501,5.845 -39.782,-11.5"
       id="path27"
       style="fill:#f0f0f0;fill-rule:evenodd;stroke:#000000;stroke-width:0;stroke-linecap:square;stroke-miterlimit:10" />
    <path
       d="m 100.551,80.757 c 4.96,2.387 12.188,-1.797 17.255,-2.875 5.795,-1.232 11.649,-0.987 17.54,-2.165 13.57,-2.713 26.014,-0.59 39.019,-1.668 12.91,-1.07 23.528,-2.081 36.428,0.958 10.011,2.358 32.833,4.832 36.427,16.291"
       id="path29"
       style="fill:none;stroke:#000000;stroke-width:1.62709999;stroke-linecap:square;stroke-miterlimit:10" />
    <path
       d="m 167.655,136.338 c 11.114,-4.66 20.625,-13.501 31.633,-18.208 12.048,-5.151 25.165,-9.434 37.548,-14.075 5.522,-2.07 10.437,-5.238 16.136,-7.007 1.793,-0.557 7.274,-0.733 7.882,-2.555 1.234,-3.702 1.816,-7.141 4.579,-9.903 5.617,-5.614 9.098,4.833 7.919,9.548 -1.382,5.523 -11.676,4.221 -16.336,6.084 -5.099,2.039 -10.216,4.807 -14.625,8.113 -2.213,1.659 -4.929,3.432 -6.195,5.963 -2.247,4.491 2.068,2.04 4.314,1.916 6.145,-0.338 11.974,-2.875 18.213,-2.875 6.515,0 11.982,2.875 18.391,2.875 5.591,0 12.027,4.934 4.615,8.625 -5.504,2.741 -9.99,-3.103 -15.276,-3.983 -4.533,-0.755 -33.503,1.423 -31.215,8.295 0.159,0.479 0.319,0.958 0.479,1.437 5.767,-2.308 14.917,-1.591 20.131,1.917 2.534,1.705 4.897,4.896 7.069,7.068 2.415,2.414 7.036,2.16 9.977,3.923 6.868,4.118 5.864,14.18 -3.624,12.967 -7.228,-0.924 -8.479,-10.247 -15.178,-12.757 -15.509,-5.813 -29.979,-4.75 -46.175,-2.576 -13.798,1.852 -26.563,-4.395 -40.262,-4.792"
       id="path31"
       style="fill:#008c00;fill-rule:evenodd" />
    <path
       d="m 78.503,138.255 c -9.347,-6.896 -25.125,-4.628 -36.004,-3.792 -6.799,0.523 -13.59,1.068 -20.381,1.686 -6.006,0.546 -11.319,4.023 -17.145,4.023 -6.417,0 -6.757,7.666 -0.249,7.666 6.153,0 9.154,-3.774 16.261,-2.875 10.049,1.272 23.608,1.925 32.594,6.708 -6.624,7.246 -19.552,8.123 -27.8,13.417 -5.308,3.407 -6.434,8.154 -12.941,6.708 -6.175,-1.372 -11.74,0.083 -6.231,6.708 3.465,4.168 11.322,7.253 13.42,0.958 2.008,-6.025 5.693,-8.285 11.564,-10.242 4.773,-1.591 10.228,-2.887 15.278,-3.174 3.968,-0.226 14.463,-0.065 7.704,5.004 -7.55,5.663 -17.565,10.603 -24.213,17.25 -2.911,2.911 -11.572,5.409 -12.25,10.329 -0.806,5.853 6.561,8.22 10.51,6.246 4.983,-2.491 4.231,-9.482 8.063,-13.314 2.929,-2.929 9.107,-6.27 12.701,-8.664 8.974,-5.981 19.433,-11.772 30.077,-8.226 -5.456,-6.37 -8.19,-30.554 -0.958,-36.416"
       id="path33"
       style="fill:#47b500;fill-rule:evenodd" />
    <path
       d="m 123.558,22.301 c 3.947,1.669 6.332,18.208 0.479,18.208 -6.383,-10e-4 -4.328,-15.012 -0.479,-18.208"
       id="path35"
       style="fill-rule:evenodd" />
    <path
       d="m 199.288,40.508 c 4.983,1.495 5.025,13.484 0,13.417 -6.776,-0.091 -3.469,-12.142 0,-13.417"
       id="path37"
       style="fill-rule:evenodd" />
    <path
       d="m 129.31,232.168 c -11.805,21.239 -25.328,50.688 -22.048,75.706 4.011,30.6 44.486,24.722 65.666,18.207 27.292,-8.394 45.965,-24.889 56.289,-51.718 7.674,-19.941 12.693,-56.483 -2.266,-74.156 -6.381,-7.539 -13.554,-16.913 -24.683,-16.913 -9.615,0 -20.782,0.198 -29.163,5.958 -18.015,12.379 -30.845,25.347 -43.795,42.916"
       id="path39"
       style="fill:#47b500;fill-rule:evenodd" />
    <path
       d="m 133.145,235.043 c -10.053,22.61 -23.283,50.355 -18.214,75.706 5.578,27.899 49.468,16.254 67.276,9.781 27.34,-9.938 41.718,-30.678 48.592,-58.16 5.754,-23.001 5.712,-58.362 -19.451,-69.973 -31.495,-14.532 -61.213,20.807 -78.203,42.646"
       id="path41"
       style="fill:#5cba00;fill-rule:evenodd" />
    <path
       d="m 137.937,238.876 c -5.625,11.248 -11.069,23.676 -13.899,35.936 -2.667,11.553 -8.167,27.228 -2.397,38.812 10.359,20.8 55.161,11.179 70.547,1.563 23.358,-14.599 36.45,-36.114 38.735,-63.852 0.546,-6.63 0.163,-13.287 0.769,-19.95 0.551,-6.056 -4.212,-13.406 -6.389,-19.001 -5.628,-14.467 -20.936,-16.631 -34.064,-16.631 -9.548,0 -22.034,9.376 -28.588,15.461 -9.463,8.783 -16.862,17.398 -24.714,27.662"
       id="path43"
       style="fill:#70bf00;fill-rule:evenodd" />
    <path
       d="m 142.731,241.751 c -10.466,18.31 -25.049,54.064 -11.273,73.345 6.014,8.417 25.733,8.183 34.848,5.449 12.768,-3.829 25.268,-5.543 36.016,-14.139 21.39,-17.105 26.685,-42.907 26.685,-69.13 0,-12.19 -7.176,-26.751 -18.53,-31.91 -13.9,-6.316 -26.234,-1.241 -38.583,6.355 -11.981,7.37 -20.483,19.184 -29.163,30.03"
       id="path45"
       style="fill:#85c400;fill-rule:evenodd" />
    <path
       d="m 147.524,244.625 c -5.045,11.771 -9.89,23.475 -13.262,35.832 -2.346,8.599 -5.863,29.927 5.383,34.424 19.911,7.96 54.176,1.429 68.643,-15.099 8.314,-9.499 15.655,-21.821 16.954,-34.783 0.629,-6.276 1.847,-12.862 1.847,-19.166 0,-8.645 -1.916,-13.662 -5.153,-21.753 -12.841,-32.091 -47.876,-7.523 -63.546,6.835 -4.156,3.808 -7.379,9.273 -10.866,13.71"
       id="path47"
       style="fill:#9ccc00;fill-rule:evenodd" />
    <path
       d="m 152.316,248.459 c -7.411,14.82 -27.994,57.107 -2.935,65.464 21.304,7.104 56.09,-5.946 66.204,-26.174 5.52,-11.037 8.628,-21.592 8.628,-34.02 0,-5.7 1.736,-11.123 -0.533,-16.415 -3.047,-7.105 -5.857,-11.989 -10.599,-18.085 -7.122,-9.155 -25.572,-3.487 -33.071,1.51 -11.494,7.659 -19.307,16.822 -27.694,27.72"
       id="path49"
       style="fill:#b0d100;fill-rule:evenodd" />
    <path
       d="m 157.109,251.334 c -6.447,12.891 -24.367,51.191 -3.834,59.414 17.773,7.117 49.569,-4.552 58.874,-20.821 12.012,-21.006 15.193,-44.642 0.026,-64.857 -5.339,-7.118 -24.283,-3.326 -30.125,0.762 -10.315,7.218 -17.416,15.474 -24.941,25.502"
       id="path51"
       style="fill:#c4d600;fill-rule:evenodd" />
    <path
       d="m 161.903,255.167 c -7.669,11.233 -20.792,45.834 -2.876,52.707 16.919,6.491 41.59,-5.051 51.765,-18.209 12.223,-15.807 13.271,-42.979 0.426,-57.958 -6.123,-7.141 -20.37,-3.816 -27.06,0.643 -9.456,6.302 -15.6,13.668 -22.255,22.817"
       id="path53"
       style="fill:#dede00;fill-rule:evenodd" />
    <path
       d="m 65.082,220.669 c 19.284,-3.707 38.345,-7.209 57.997,-8.146 8.498,-0.404 19.716,-1.858 27.856,0.646 11.979,3.685 19.097,6.259 17.867,19.785 -1.64,18.038 -23.026,31.628 -34.7,43.297 -13.928,13.923 -30.685,24.157 -46.013,36.414 18.27,2.031 37.165,5.597 55.12,9.584 19.302,4.287 37.547,4.791 57.098,4.791 4.242,0 8.342,1.916 12.881,1.916 3.985,0 12.029,-0.577 14.646,2.911 7.974,10.627 -11.314,11.312 -17.488,6.903 -13.522,-9.655 -38.273,7.152 -54.195,6.477 12.657,8.148 28.364,9.776 42.18,15.335 6.762,2.721 12.252,5.937 19.366,7.714 3.82,0.954 16.813,11.357 8.643,14.626 -6.1,2.439 -14.071,2.618 -18.796,-2.779 -5.771,-6.593 -10.402,-7.725 -18.801,-9.979 -14.386,-3.86 -28.992,-6.783 -43.137,-11.5 5.036,10.925 11.241,23.922 18.427,33.506 4.71,6.282 6.777,6.836 14.631,9.452 7.956,2.651 4.404,8.916 -2.121,9.848 -6.56,0.937 -11.513,1.917 -15.15,-4.142 -1.475,-2.458 1.413,-5.914 0.51,-8.415 -0.76,-2.105 -5.434,-5.431 -7.07,-7.067 -8.461,-8.46 -13.87,-20.368 -23.57,-27.645 -2.965,-2.225 -13.583,-1.186 -17.611,-1.632 -5.939,-0.659 -12.057,-2.608 -17.894,-3.905 -10.911,-2.425 -24.079,-7.667 -35.22,-7.667 -12.095,0 -26.561,3.028 -38.148,-0.282 -5.588,-1.597 -10.031,-5.341 -10.031,-11.536 0,-8.457 4.585,-11.168 10.905,-16.431 12.149,-10.117 25.173,-18.185 37.984,-27.331 -4.011,2.567 -26.756,25.72 -29.499,23.307 C 24.542,312.383 17.335,306.042 10.128,299.703 5.12,295.297 3.429,285.558 0.984,279.45 c -1.225,-3.06 2.354,-16.015 4.628,-18.637 5.577,-6.435 10.517,-12.545 17.308,-17.637 11.017,-8.26 28.061,-21.335 42.162,-22.507"
       id="path55"
       style="fill:#008700;fill-rule:evenodd" />
    <path
       d="m 66.042,223.543 c 18.265,-2.922 36.498,-5.801 54.919,-7.555 8.453,-0.806 19.847,-2.669 28.016,0.054 11.406,3.8 16.761,6.145 16.761,18.828 0,15.54 -24.296,32.698 -34.51,42.338 -14.083,13.291 -28.683,25.041 -45.055,35.456 36.119,8.025 73.198,14.375 110.181,14.375 8.45,0 18.963,1.292 27.161,3.634 5.365,1.532 1.786,8.212 -1.219,9.783 -5.062,2.647 -10.479,0.056 -14.272,-3.104 -5.534,-4.61 -19.704,1.036 -26.25,2.905 -8.473,2.419 -16.696,5.368 -25.622,4.989 11.857,7.634 26.439,9.433 39.479,14.322 6.527,2.448 12.37,6.212 18.995,8.198 2.923,0.877 17.344,9.839 8.838,13.238 -7.563,3.022 -12.917,2.769 -18.424,-3.654 -4.23,-4.937 -10.842,-5.824 -17.095,-7.387 -14.165,-3.54 -28.479,-6.679 -42.339,-11.301 5.036,10.925 11.241,23.922 18.427,33.506 1.265,1.687 2.359,5.405 4.332,5.997 2.735,0.82 7.426,1.214 9.475,3.262 6.37,6.366 -1.628,9.667 -8.269,8.983 -4.045,-0.416 -5.507,-0.633 -7.882,-3.797 -1.79,-2.386 1.042,-5.174 0.214,-7.702 -1.191,-3.637 -9.017,-10.02 -11.503,-13.417 -6.525,-8.917 -15.102,-23.958 -26.522,-23.958 -25.02,0 -47.683,-12.458 -72.535,-12.458 -11.058,0 -29.188,3.562 -34.191,-9.582 -4.094,-10.755 15.606,-21.823 23.268,-27.292 8.015,-5.721 16.02,-11.602 23.705,-17.748 -5.478,3.506 -10.47,7.291 -15.338,11.499 -2.686,2.321 -12.845,11.623 -16.296,11.501 -4.506,-0.16 -15.788,-14.411 -19.266,-17.585 -5.556,-5.072 -7.208,-13.602 -9.962,-20.484 -1.507,-3.767 1.642,-15.678 4.431,-18.681 5.558,-5.983 10.443,-11.607 17.146,-16.214 10.957,-7.531 27.699,-19.823 41.202,-20.949"
       id="path57"
       style="fill:#008c00;fill-rule:evenodd" />
    <path
       d="m 66.042,226.418 c 17.051,-3.409 106.909,-24.651 95.862,12.458 -4.632,15.561 -22.154,30.279 -33.977,40.621 -13.801,12.07 -28.419,22.694 -42.713,34.126 17.688,1.964 35.141,5.929 52.723,8.626 8.621,1.322 18.281,4.79 26.842,4.79 10.216,0 20.462,-0.229 30.676,0 4.204,0.095 8.278,1.916 12.213,1.916 3.42,0 10.868,-1.18 13.669,1.917 2.321,2.566 2.169,7.352 -0.958,9.584 -5.081,3.628 -10.629,-1.042 -13.882,-4.293 -3.298,-3.297 -20.393,2.856 -24.724,4.094 -8.473,2.419 -16.696,5.368 -25.622,4.989 11.27,7.256 24.852,8.838 37.21,13.472 6.664,2.499 35.646,10.754 27.976,20.07 -5.098,6.191 -13.442,0.936 -17.484,-3.105 -3.933,-3.931 -12.431,-4.851 -17.809,-6.194 -13.536,-3.382 -27.193,-6.408 -40.438,-10.825 5.036,10.925 11.241,23.922 18.427,33.506 1.248,1.664 2.345,5.358 4.261,5.997 2.682,0.894 6.703,1.379 8.734,3.408 5.581,5.578 -6.08,7.742 -10.368,6.672 -7.975,-1.99 -3.176,-7.754 -7.994,-12.568 -4.478,-4.474 -8.203,-10.086 -11.704,-15.335 -2.625,-3.936 -6.294,-9.363 -9.625,-12.694 -6.051,-6.05 -7.149,-6.594 -15.698,-7.067 -25.549,-1.414 -49.205,-13.418 -75.091,-13.418 -6.061,0 -11.663,-0.477 -17.61,-1.668 -3.851,-0.771 -10.958,-10.659 -7.355,-14.261 9.591,-9.589 21.196,-16.982 31.499,-25.81 5.046,-4.323 10.119,-7.116 13.917,-12.884 -10.813,7.49 -21.443,15.251 -32.38,22.537 -4.553,3.033 -14.253,-10.698 -17.752,-14.196 -6.133,-6.131 -7.36,-11.14 -10.169,-19.566 -4.552,-13.65 8.176,-27.824 18.608,-34.777 11.325,-7.549 26.889,-18.747 40.736,-20.122"
       id="path59"
       style="fill:#009400;fill-rule:evenodd" />
    <path
       d="m 66.042,229.294 c 17.801,-2.848 35.884,-7.136 53.882,-8.081 14.917,-0.784 46.692,-4.794 38.144,19.579 -5.696,16.241 -21.326,28.025 -33.089,39.787 -12.742,12.739 -27.131,23.424 -41.682,34.002 17.963,1.999 36.207,4.94 53.931,8.483 18.021,3.602 34.416,3.975 52.565,3.975 8.284,0 20.354,-0.323 27.676,3.336 3.724,1.861 3.42,6.943 0.034,9.122 -5.663,3.645 -7.514,-2.544 -11.503,-3.832 -6.233,-2.013 -18.719,3.02 -24.924,4.791 -8.257,2.357 -16.225,5.159 -24.924,4.79 11.27,7.256 24.852,8.838 37.21,13.472 5.692,2.134 11.502,6.192 17.171,7.812 3.453,0.987 5.629,1.335 8.142,3.847 1.49,1.49 0.976,7.156 -1.206,7.702 -8.419,2.104 -8.549,-0.347 -15.303,-4.082 -5.047,-2.791 -12.792,-3.676 -18.391,-5.074 -12.786,-3.195 -25.659,-6.087 -38.168,-10.259 5.036,10.925 11.241,23.922 18.427,33.506 1.25,1.667 2.367,5.426 4.319,5.983 3.334,0.953 5.521,0.982 7.433,3.848 2.423,3.633 -10.863,7.668 -13.421,3.833 -1.651,-2.476 0.45,-6.011 -1.061,-7.52 -2.345,-2.344 -4.397,-4.686 -6.471,-7.277 -3.626,-4.532 -6.232,-9.804 -9.956,-14.272 -3.8,-4.561 -6.648,-9.993 -10.774,-14.267 -5.079,-5.261 -10.395,-3.834 -17.432,-3.834 -12.174,0 -24.438,-5.912 -36.09,-8.823 -13.497,-3.372 -25.937,-2.908 -39.464,-4.594 -6.034,-0.752 -10.501,-2.808 -13.882,-7.879 -4.319,-6.48 3.908,-11.775 8.308,-15.545 9.227,-7.906 22.541,-13.829 30.138,-23.322 2.05,-2.561 3.889,-4.465 4.194,-7.876 -11.698,4.906 -22.789,15.011 -33.761,21.591 -6.603,3.96 -10.784,-5.148 -15.722,-10.332 -6.463,-6.783 -8.081,-10.442 -11.099,-19.491 -9.052,-27.149 35.705,-48.974 56.749,-53.099"
       id="path61"
       style="fill:#009900;fill-rule:evenodd" />
    <path
       d="m 67,232.168 c 17.268,-2.878 34.56,-6.664 51.965,-8.495 14.478,-1.522 45.397,-4.31 36.227,19.036 -6.133,15.614 -22.299,26.572 -32.964,38.757 -11.601,13.254 -25.524,23.064 -39.89,33.115 17.638,1.963 35.721,4.651 53.113,8.128 18.451,3.688 34.457,5.491 53.292,4.33 3.696,-0.228 8.787,-0.618 12.463,0 2.364,0.397 10.567,1.293 12.249,2.413 3.349,2.231 4.423,6.223 1.171,9.088 -5.533,4.876 -5.371,-2.875 -9.525,-2.875 -16.626,0 -32.152,10.294 -48.949,9.581 10.775,6.938 23.522,8.339 35.308,12.758 5.539,2.077 32.013,10.027 24.127,17.908 -5.021,5.018 -9.137,-0.016 -13.421,-1.916 -5.588,-2.479 -12.464,-3.594 -18.391,-5.074 -12.786,-3.195 -25.659,-6.087 -38.168,-10.259 3.801,8.245 8.908,15.894 12.972,24.018 2.008,4.016 4.366,7.428 6.65,11.23 2.672,4.45 5.967,4.25 9.136,7.875 -2.228,2.889 -9.726,4.65 -12.462,1.917 -1.863,-1.862 1.016,-3.776 -0.599,-5.39 -1.838,-1.837 -3.532,-3.604 -5.153,-5.631 -6.458,-8.072 -12.075,-17.151 -17.814,-25.755 -1.331,-1.995 -6.067,-9.223 -8.706,-9.223 -5.283,0 -10.434,0.015 -15.658,-0.958 -10.457,-1.947 -21.474,-4.514 -31.634,-7.668 -9.975,-3.097 -19.487,-4.11 -29.895,-5.411 -3.393,-0.425 -28.437,-4.923 -21.373,-13.394 6.799,-8.155 15.064,-13.227 23.467,-19.525 5.237,-3.927 22.735,-13.668 18.213,-22.041 -10.132,8.315 -22.851,13.899 -34.031,20.604 -8.181,4.904 -9.041,0.396 -15.338,-6.23 -6.827,-7.184 -9.207,-9.942 -11.829,-19.379 C 3.913,256.208 43.632,234.936 67,232.168"
       id="path63"
       style="fill:#00a100;fill-rule:evenodd" />
    <path
       d="m 67,235.043 c 17.137,-2.855 34.29,-6.575 51.551,-8.493 14.111,-1.567 42.943,-4.582 32.807,18.075 -6.554,14.651 -20.974,27.679 -32.131,38.83 -11.902,11.896 -24.764,21.622 -37.848,32.086 17.627,1.953 35.72,4.65 53.115,8.127 16.449,3.288 34.161,6.105 50.929,3.709 8.664,-1.238 16.144,1.578 24.375,1.578 3.539,0 5.094,6.442 2.911,8.626 -4.24,4.242 -4.186,-1.916 -7.608,-1.916 -16.626,0 -32.152,10.294 -48.949,9.581 9.863,6.35 22.422,9.438 33.712,12.26 6.505,1.626 29.551,8.64 22.846,16.49 -4.977,5.827 -24.485,-3.963 -31.634,-5.749 -11.892,-2.972 -23.833,-5.704 -35.469,-9.584 5.036,10.925 11.241,23.922 18.427,33.506 2.136,2.848 8.849,8.05 5.751,10.114 -7.497,4.998 -7.647,-3.138 -11.118,-6.605 -8.359,-8.353 -13.723,-20.732 -20.73,-30.308 -4.441,-6.068 -6.575,-8.623 -14.06,-8.623 -6.308,0 -12.297,-1.557 -18.372,-3.074 C 92.625,350.455 80.12,345.505 67,343.33 c -7.753,-1.285 -29.003,-0.456 -31.634,-10.542 -2.193,-8.406 18.863,-19.279 25.362,-23.61 5.295,-3.528 10.291,-7.238 14.792,-11.737 1.887,-1.887 4.144,-5.271 2.238,-7.81 -3.164,-4.217 -4.463,-0.866 -8.361,1.472 -10.5,6.301 -20.917,12.868 -32.324,17.43 -7.166,2.866 -7.912,-1.481 -13.21,-7.367 C 17.92,294.565 15.319,291.938 13.318,283.437 6.57,254.767 44.748,240.383 67,235.043"
       id="path65"
       style="fill:#14a600;fill-rule:evenodd" />
    <path
       d="m 67,237.917 c 16.564,-2.759 33.163,-6.38 49.833,-8.341 13.497,-1.588 44.461,-5.975 30.449,17.369 -16.058,26.753 -41.436,51.809 -67.821,68.596 17.605,3.909 35.654,4.651 53.367,7.87 16.804,3.053 33.58,6.683 50.609,4.249 4.045,-0.578 7.916,-0.715 12.018,-0.621 4.308,0.099 8.406,1.916 12.461,1.916 3.721,0 1.918,5.802 1.918,7.668 0,5.65 -4.1,-0.958 -6.711,-0.958 -15.894,0 -30.789,10.268 -46.972,9.581 9.863,6.35 22.422,9.438 33.712,12.26 6.001,1.5 26.09,7.051 19.971,14.573 -5.205,6.398 -21.681,-2.063 -28.759,-3.832 -11.892,-2.972 -23.833,-5.704 -35.469,-9.584 5.036,10.925 11.241,23.922 18.427,33.506 2.132,2.844 5.937,6.352 3.142,9.139 -3.295,3.287 -7.601,-4.35 -9.107,-6.229 -7.703,-9.605 -13.671,-20.976 -20.529,-31.263 -4.248,-6.373 -5.853,-8.986 -13.661,-8.986 -6.378,0 -12.067,-2.086 -18.272,-2.974 -12.872,-1.842 -24.706,-9.034 -37.647,-10.442 -6.345,-0.69 -10.683,-0.439 -16.775,-2.875 -2.893,-1.156 -11.965,-4.469 -11.983,-8.624 -0.031,-7.261 25.334,-21.047 30.676,-24.916 3.222,-2.334 13.421,-8.354 13.421,-12.742 0,-4.494 -1.421,-4.496 -5.153,-6.983 -0.917,-0.61 -6.412,4.825 -7.519,5.711 -8.369,6.693 -21.77,10.627 -31.425,15.452 -8.28,4.139 -7.782,2.014 -13.613,-5.272 -4.407,-5.507 -8.096,-9.186 -9.784,-15.938 -2.327,-9.304 -1.92,-11.402 1.559,-20.446 1.626,-4.226 7.786,-9.641 11.721,-11.76 C 41.239,246.478 53.463,241.025 67,237.917"
       id="path67"
       style="fill:#2ead00;fill-rule:evenodd" />
    <path
       d="m 67,240.792 c 15.625,-2.498 31.083,-5.538 46.657,-8.286 11.539,-2.036 44.875,-7.208 30.768,15.353 -17.111,27.365 -40.866,48.604 -65.922,68.639 24.342,2.709 49.582,5.69 73.494,11.004 11.703,2.601 23.351,1.315 35.09,-0.362 5.105,-0.729 12.11,-0.769 16.995,0.858 4.458,1.485 2.876,6.146 2.876,10.543 -0.319,0 -0.64,0 -0.959,0 0.813,-6.059 -19.709,0.427 -24.226,1.717 -8.473,2.419 -16.696,5.368 -25.622,4.989 9.314,5.996 21.14,9.117 31.811,11.784 5.661,1.415 11.027,3.832 16.381,6.125 6.207,2.658 5.832,3.267 2.615,7.008 -6.028,7.012 -18.785,-0.142 -26.681,-2.115 -11.627,-2.906 -23.294,-5.591 -34.671,-9.385 3.189,6.918 7.591,13.261 10.994,20.064 3.126,6.25 9.564,13.633 11.054,20.185 -4.519,1.017 -4.479,1.271 -7.669,-1.917 -4.927,-4.923 -8.622,-11.731 -12.071,-17.762 -3.21,-5.615 -6.79,-10.999 -10.376,-16.377 -2.102,-3.152 -4,-5.716 -6.67,-8.386 -1.905,-1.904 -7.32,-0.36 -10.025,-0.698 -14.89,-1.862 -28.784,-7.773 -43.298,-11.4 -7.053,-1.763 -14.282,-2.204 -21.15,-4.491 -5.338,-1.778 -8.744,-5.99 -12.402,-8.926 12.153,-15.182 32.085,-21.815 44.556,-36.774 3.36,-4.029 -4.963,-8.71 -8.128,-8.265 -2.267,0.319 -8.453,5.649 -10.99,7.099 -8.849,5.056 -18.087,8.004 -27.355,12.068 -1.986,0.871 -8.837,5.788 -10.285,3.859 -3.719,-4.957 -7.439,-9.915 -11.158,-14.872 -5.936,-7.912 -5.716,-16.976 -2.122,-25.598 C 25.936,248.661 51.426,246.375 67,240.792"
       id="path69"
       style="fill:#47b500;fill-rule:evenodd" />
    <path
       d="m 76.585,187.128 c 2.673,6.871 6.528,24.338 17.686,22.945 10.718,-1.339 23.142,-2.559 32.453,-8.764 19.967,-13.308 37.407,-27.98 55.31,-43.888 -18.549,-7.877 -47.261,-3.673 -65.186,4.792 -5.077,-13.535 -12.2,-25.373 -18.214,-38.332 -3.654,-7.873 -13.438,-38.312 -26.113,-25.644 -9.527,9.521 -4.058,33.315 -2.813,45.14 1.549,14.704 4.234,29.217 6.877,43.751"
       id="path71"
       style="fill:#47b500;fill-rule:evenodd" />
    <path
       d="m 78.503,185.211 c 2.833,8.026 5.834,23.348 17.892,21.842 10.635,-1.329 21.885,-2.856 31.289,-8.602 19.947,-12.187 36.919,-25.542 54.35,-41.03 -18.549,-7.877 -47.261,-3.673 -65.186,4.792 -5.077,-13.535 -12.2,-25.373 -18.214,-38.332 -3.506,-7.555 -14.018,-38.69 -26.113,-26.602 -8.59,8.585 -2.91,34.497 -1.83,45.307 1.416,14.161 5.264,28.613 7.812,42.625"
       id="path73"
       style="fill:#30ad00;fill-rule:evenodd" />
    <path
       d="m 80.421,184.254 c 3.014,7.532 6.794,21.48 17.99,19.882 9.793,-1.399 21.493,-2.848 30.082,-8.096 19.2,-11.73 36.699,-23.654 53.541,-38.619 -18.549,-7.877 -47.261,-3.673 -65.186,4.792 -4.963,-13.229 -11.503,-24.914 -17.765,-37.434 -2.91,-5.818 -3.391,-13.087 -7.519,-17.964 -2.897,-3.423 -11.328,-16.292 -16.666,-10.955 -9.798,9.796 -3.622,32.231 -2.314,44.642 1.537,14.583 5.211,29.321 7.837,43.752"
       id="path75"
       style="fill:#1ca800;fill-rule:evenodd" />
    <path
       d="m 82.338,182.337 c 3.44,9.63 5.822,18.778 18.107,17.959 9.986,-0.667 19.115,-2.545 28.227,-7.099 19.619,-9.807 36.941,-21.185 53.362,-35.776 -18.549,-7.877 -47.261,-3.673 -65.186,4.792 -4.963,-13.229 -11.503,-24.914 -17.765,-37.434 -2.91,-5.818 -3.391,-13.087 -7.519,-17.964 -3.173,-3.749 -11.281,-16.338 -16.896,-10.725 -8.62,8.617 -2.261,32.671 -1.126,43.454 1.509,14.335 5.607,28.766 8.796,42.793"
       id="path77"
       style="fill:#08a300;fill-rule:evenodd" />
    <path
       d="m 84.255,180.421 c 2.932,9.524 5.243,17.792 17.149,17 10.136,-0.675 19.042,-2.741 28.368,-7.128 19.24,-9.051 35.513,-19.849 52.262,-32.872 -18.549,-7.877 -47.261,-3.673 -65.186,4.792 -4.963,-13.229 -11.503,-24.914 -17.765,-37.434 -2.425,-4.849 -3.014,-12.642 -6.338,-16.568 -2.337,-2.761 -11.921,-17.215 -17.154,-13.292 -9.202,6.9 -1.86,32.919 -0.214,42.791 2.394,14.358 5.652,28.523 8.878,42.711"
       id="path79"
       style="fill:#009c00;fill-rule:evenodd" />
    <path
       d="m 86.172,178.504 c 3.375,10.124 6.094,16.746 18.058,15.891 8.625,-0.616 17.643,-2.302 25.542,-6.018 18.77,-8.831 35.858,-18.202 52.262,-30.956 -18.549,-7.877 -47.261,-3.673 -65.186,4.792 -4.963,-13.229 -11.503,-24.914 -17.765,-37.434 -2.425,-4.849 -3.014,-12.642 -6.338,-16.568 -1.27,-1.5 -12.965,-17.23 -15.799,-14.396 -9.157,9.152 -1.465,31.375 0.349,42.854 2.22,14.056 5.725,27.969 8.877,41.835"
       id="path81"
       style="fill:#009600;fill-rule:evenodd" />
    <path
       d="m 88.09,176.586 c 2.681,9.829 5.182,14.375 16.404,14.375 9.322,0 17.383,-2.169 26.236,-5.292 18.781,-6.625 35.551,-16 51.304,-28.248 -18.549,-7.877 -47.261,-3.673 -65.186,4.792 -4.702,-12.534 -10.85,-23.608 -16.776,-35.457 -2.32,-4.639 -3.499,-14.023 -6.525,-17.598 -2.132,-2.519 -11.322,-16.773 -16.001,-15.942 -11.723,2.08 8.542,74.568 10.544,83.37"
       id="path83"
       style="fill:#009100;fill-rule:evenodd" />
    <path
       d="m 90.006,174.67 c 1.177,3.924 1.224,8.85 5.113,10.578 5.711,2.537 8.619,2.839 14.91,2.839 8.168,0 16.497,-2.85 24.178,-5.561 17.07,-6.022 33.512,-13.974 47.827,-25.105 -18.549,-7.877 -47.261,-3.673 -65.186,4.792 -4.702,-12.534 -10.85,-23.608 -16.776,-35.457 -2.32,-4.639 -3.499,-14.023 -6.525,-17.598 -2.083,-2.461 -11.39,-16.828 -16.001,-15.942 -10.604,2.034 10.373,72.69 12.46,81.454"
       id="path85"
       style="fill:#008c00;fill-rule:evenodd" />
    <path
       d="m 113.972,155.504 c 12.417,2.483 24.054,5.639 36.204,9.109 12.513,3.573 25.028,10.057 38.246,10.057 17.694,0 65.539,-2.768 56.401,-30.186 -3.867,-11.603 -21.968,-3.555 -31.155,-3.354 -13.059,0.285 -25.17,-2.928 -37.885,-5.652 -26.065,-5.584 -48.696,-7.721 -75.232,-3.932 5.592,6.91 8.438,16.486 13.421,23.958"
       id="path87"
       style="fill:#47b500;fill-rule:evenodd" />
    <path
       d="m 113.013,152.629 c 12.26,2.452 23.907,5.542 35.962,8.756 13.14,3.503 26.191,9.907 39.768,11.368 11.865,1.277 24.804,-0.924 36.181,-4.173 6.862,-1.96 14.268,-2.266 18.461,-8.285 3.53,-5.067 3.344,-10.093 1.438,-15.812 -3.867,-11.603 -21.968,-3.555 -31.155,-3.354 -13.059,0.285 -25.17,-2.928 -37.885,-5.652 -26.065,-5.584 -48.696,-7.721 -75.232,-3.932 4.035,5.844 10.796,14.472 12.462,21.084"
       id="path89"
       style="fill:#30ad00;fill-rule:evenodd" />
    <path
       d="m 113.013,149.755 c 25.795,5.156 50.29,14.264 75.955,19.761 17.261,3.697 65.034,2.511 55.855,-25.031 -3.867,-11.603 -21.968,-3.555 -31.155,-3.354 -13.059,0.285 -25.17,-2.928 -37.885,-5.652 -26.065,-5.584 -48.696,-7.721 -75.232,-3.932 3.599,6.029 7.949,13.139 12.462,18.208"
       id="path91"
       style="fill:#1ca800;fill-rule:evenodd" />
    <path
       d="m 113.013,147.838 c 26.845,4.025 51.354,14.484 77.751,19.761 16.779,3.354 63.442,5.042 54.059,-23.115 -3.867,-11.603 -21.968,-3.555 -31.155,-3.354 -13.059,0.285 -25.17,-2.928 -37.885,-5.652 -26.065,-5.584 -48.696,-7.721 -75.232,-3.932 4.258,5.201 8.809,10.171 12.462,16.292"
       id="path93"
       style="fill:#08a300;fill-rule:evenodd" />
    <path
       d="m 113.013,144.963 c 26.565,3.983 51.285,12.731 77.044,20.089 10.789,3.082 23.527,3.826 34.611,1.871 7.112,-1.254 14.363,-0.614 18.716,-6.627 3.604,-4.979 3.318,-10.169 1.438,-15.812 -3.867,-11.603 -21.968,-3.555 -31.155,-3.354 -13.059,0.285 -25.17,-2.928 -37.885,-5.652 -26.065,-5.584 -48.696,-7.721 -75.232,-3.932 3.537,5.184 9.265,7.755 12.463,13.417"
       id="path95"
       style="fill:#009c00;fill-rule:evenodd" />
    <path
       d="m 112.055,142.088 c 13.062,1.866 25.23,4.216 37.987,7.572 11.892,3.128 22.97,8.486 34.762,11.629 14.687,3.916 70.146,15.037 60.498,-15.368 -4.264,-13.436 -20.921,-5.025 -31.634,-4.791 -13.059,0.285 -25.17,-2.928 -37.885,-5.652 -26.065,-5.584 -48.696,-7.721 -75.232,-3.932 3.386,4.962 8.935,5.181 11.504,10.542"
       id="path97"
       style="fill:#009600;fill-rule:evenodd" />
    <path
       d="m 112.055,139.213 c 12.692,2.417 25.343,4.931 37.987,7.591 11.639,2.449 23.186,8.013 34.765,11.101 13.563,3.616 27.173,7.183 41.324,7.183 6.852,0 13.14,0.749 17.254,-4.792 3.653,-4.918 3.301,-10.223 1.438,-15.812 -3.867,-11.603 -21.968,-3.555 -31.155,-3.354 -13.059,0.285 -25.17,-2.928 -37.885,-5.652 -26.065,-5.584 -48.696,-7.721 -75.232,-3.932 3.327,4.245 8.176,3.423 11.504,7.667"
       id="path99"
       style="fill:#009100;fill-rule:evenodd" />
    <path
       d="m 112.055,136.338 c 24.878,4.737 49.308,11.149 73.491,18.706 13.808,4.314 26.63,8.02 41.083,9.052 6.844,0.489 12.587,1.676 16.756,-3.801 3.699,-4.86 3.284,-10.273 1.438,-15.812 -3.867,-11.603 -21.968,-3.555 -31.155,-3.354 -13.059,0.285 -25.17,-2.928 -37.885,-5.652 -26.065,-5.584 -48.696,-7.721 -75.232,-3.932 3.52,5.85 8.147,-0.917 11.504,4.793"
       id="path101"
       style="fill:#008c00;fill-rule:evenodd" />
    <path
       d="m 28.655,214.919 c 3.585,2.661 2.262,12.674 -2.875,12.459 -6.341,-0.266 -2.821,-12.429 2.875,-12.459"
       id="path103"
       style="fill:#2ead00;fill-rule:evenodd" />
    <path
       d="m 17.152,205.336 c 3.746,2.618 1.331,14.556 -4.793,12.458 -5.073,-1.738 -0.6,-12.628 4.793,-12.458"
       id="path105"
       style="fill:#008c00;fill-rule:evenodd" />
    <path
       d="m 65.082,121.964 c 3.362,2.396 2.136,14.526 -4.792,11.5 -4.823,-2.107 -0.981,-12.257 4.792,-11.5"
       id="path107"
       style="fill:#008c00;fill-rule:evenodd" />
    <path
       d="m 10.442,240.792 c 5.886,0.722 4.176,13.707 -1.917,12.459 -3.312,-0.679 -4.005,-13.573 1.917,-12.459"
       id="path109"
       style="fill:#008c00;fill-rule:evenodd" />
    <path
       d="m 254.889,219.71 c 4.993,1.569 0.661,13.788 -4.793,11.5 -4.201,-1.763 0.384,-14.996 4.793,-11.5"
       id="path111"
       style="fill:#14a600;fill-rule:evenodd" />
    <path
       d="m 113.013,170.837 c 4.827,2.655 -0.949,10.549 -3.355,8.146 -2.563,-2.56 -0.311,-8.19 3.355,-8.146"
       id="path113"
       style="fill:#14a600;fill-rule:evenodd" />
    <path
       d="m 90.965,148.796 c 4.152,3.009 1.007,8.625 -3.355,8.625 -3.58,0 0,-8.341 3.355,-8.625"
       id="path115"
       style="fill:#2ead00;fill-rule:evenodd" />
    <path
       d="m 99.593,163.171 c 4.243,1.453 1.029,8.625 -2.397,8.625 -4.426,-0.001 -1.889,-10.372 2.397,-8.625"
       id="path117"
       style="fill:#2ead00;fill-rule:evenodd" />
    <path
       d="m 99.593,129.63 c 1.485,3.01 1.027,10.7 -3.835,8.625 -4.397,-1.877 -0.22,-8.672 3.835,-8.625"
       id="path119"
       style="fill:#14a600;fill-rule:evenodd" />
    <path
       d="m 87.13,112.381 c 1.46,2.268 1.577,9.841 -2.875,8.625 -4.786,-1.307 -0.444,-8.501 2.875,-8.625"
       id="path121"
       style="fill:#2ead00;fill-rule:evenodd" />
    <path
       d="m 177.241,137.296 c 4.97,2.219 -1.141,10.361 -3.355,8.146 -2.885,-2.883 -0.818,-8.211 3.355,-8.146"
       id="path123"
       style="fill:#14a600;fill-rule:evenodd" />
    <path
       d="m 205.04,144.005 c 1.978,2.577 -0.098,10.198 -3.834,8.625 -4.283,-1.805 -0.502,-10.95 3.834,-8.625"
       id="path125"
       style="fill:#2ead00;fill-rule:evenodd" />
    <path
       d="m 186.827,145.921 c 3.223,2.337 1.517,9.996 -2.876,8.625 -4.789,-1.495 -0.11,-8.373 2.876,-8.625"
       id="path127"
       style="fill:#2ead00;fill-rule:evenodd" />
    <path
       d="m 217.502,149.755 c 1.59,2.467 1.728,8.688 -1.916,8.624 -5.568,-0.097 -2.468,-8.632 1.916,-8.624"
       id="path129"
       style="fill:#2ead00;fill-rule:evenodd" />
    <path
       d="m 229.006,143.047 c 4.823,2.653 -0.945,10.55 -3.354,8.145 -2.803,-2.796 -0.822,-8.21 3.354,-8.145"
       id="path131"
       style="fill:#14a600;fill-rule:evenodd" />
    <path
       d="m 47.828,194.795 c 4.181,3.102 2.318,12.457 -4.314,12.457 -4.142,0 -0.6,-12.184 4.314,-12.457"
       id="path133"
       style="fill:#47b500;fill-rule:evenodd" />
  </g>
</svg>
