<?xml version="1.0" encoding="UTF-8" standalone="no"?>
<!DOCTYPE svg PUBLIC "-//W3C//DTD SVG 1.0//EN"
"http://www.w3.org/TR/2001/REC-SVG-20010904/DTD/svg10.dtd">
<!-- Created with Inkscape (http://www.inkscape.org/) -->
<svg
   id="svg1097"
   sodipodi:version="0.32"
   inkscape:version="0.39"
   xmlns="http://www.w3.org/2000/svg"
   xmlns:sodipodi="http://sodipodi.sourceforge.net/DTD/sodipodi-0.dtd"
   xmlns:inkscape="http://www.inkscape.org/namespaces/inkscape"
   xmlns:xlink="http://www.w3.org/1999/xlink"
   xmlns:rdf="http://www.w3.org/1999/02/22-rdf-syntax-ns#"
   xmlns:cc="http://web.resource.org/cc/"
   xmlns:dc="http://purl.org/dc/elements/1.1/"
   width="120.00000pt"
   height="120.00000pt"
   sodipodi:docbase="/home/Krug/Kunden/treebuilder/images/galerie/icons"
   sodipodi:docname="soda.svg"
   inkscape:export-filename="/home/Krug/Kunden/treebuilder/images/galerie/icons/soda.png"
   inkscape:export-xdpi="72.000000"
   inkscape:export-ydpi="72.000000">
  <defs
     id="defs1099">
    <linearGradient
       inkscape:collect="always"
       xlink:href="#linearGradient19168"
       id="linearGradient2273"
       x1="0.013888889"
       y1="0.61718750"
       x2="0.59722221"
       y2="0.58593750"
       spreadMethod="pad" />
    <linearGradient
       inkscape:collect="always"
       xlink:href="#linearGradient19168"
       id="linearGradient2271" />
    <linearGradient
       inkscape:collect="always"
       xlink:href="#linearGradient19168"
       id="linearGradient2264"
       x1="0.070093460"
       y1="0.87804878"
       x2="0.33644861"
       y2="0.28048781" />
    <linearGradient
       inkscape:collect="always"
       xlink:href="#linearGradient19168"
       id="linearGradient2262"
       x1="0.82710278"
       y1="1.1250000"
       x2="0.30140188"
       y2="-0.55555558" />
    <linearGradient
       id="linearGradient19168">
      <stop
         style="stop-color:#000000;stop-opacity:0.65608466;"
         offset="0.0000000"
         id="stop19169" />
      <stop
         style="stop-color:#000000;stop-opacity:0.0000000;"
         offset="1.0000000"
         id="stop19170" />
    </linearGradient>
    <linearGradient
       inkscape:collect="always"
       xlink:href="#linearGradient19168"
       id="linearGradient2260"
       x1="0.23598132"
       y1="0.24324325"
       x2="0.51635516"
       y2="0.17567568" />
  </defs>
  <sodipodi:namedview
     id="base"
     pagecolor="#ffffff"
     bordercolor="#666666"
     borderopacity="1.0"
     inkscape:pageopacity="0.0"
     inkscape:pageshadow="2"
     inkscape:zoom="0.43415836"
     inkscape:cx="305.25953"
     inkscape:cy="233.58491"
     inkscape:window-width="640"
     inkscape:window-height="536"
     inkscape:window-x="0"
     inkscape:window-y="0" />
  <metadata
     id="metadata1100">
    <rdf:RDF
       id="RDF1101">
      <cc:Work
         rdf:about=""
         id="Work1102">
        <dc:format
           id="format1103">image/svg+xml</dc:format>
        <dc:type
           id="type1105"
           rdf:resource="http://purl.org/dc/dcmitype/StillImage" />
      </cc:Work>
    </rdf:RDF>
  </metadata>
  <g
     id="dose"
     transform="matrix(0.355737,0.000000,0.000000,0.360881,138.4743,55.91351)">
    <path
       style="fill:#8bcd00;fill-opacity:1.0000000;fill-rule:evenodd;stroke:none;stroke-width:1.0000000pt;stroke-linecap:butt;stroke-linejoin:miter;stroke-opacity:1.0000000;"
       d="M -337.60435,868.10772 L -338.47576,878.12885 L -356.77520,910.80644 L -359.38941,921.26327 L -353.28960,1254.1390 C -308.84807,1329.9510 -138.92460,1307.2946 -123.23935,1251.5248 L -121.49654,913.42065 L -124.11075,904.70662 L -139.79600,880.30735 L -142.41020,871.59333 C -157.80498,893.95933 -317.85256,901.51148 -337.60435,868.10772 z "
       id="path4293"
       sodipodi:nodetypes="ccccccccccc"
       transform="matrix(0.877776,0.000000,0.000000,0.776531,32.28025,-776.2724)" />
    <path
       style="fill:#bebebe;fill-opacity:1.0000000;fill-rule:evenodd;stroke:none;stroke-width:1.0000000pt;stroke-linecap:butt;stroke-linejoin:miter;stroke-opacity:1.0000000;"
       d="M -326.02089,1280.7387 C -294.37756,1327.0464 -155.34028,1307.5850 -148.51002,1279.8673 C -200.50370,1309.7855 -282.74123,1310.0759 -326.02089,1280.7387 z "
       id="path4294"
       sodipodi:nodetypes="ccc"
       transform="matrix(0.877776,0.000000,0.000000,0.776531,32.28025,-776.2724)" />
    <path
       style="fill:#e6e6e6;fill-opacity:1.0000000;fill-rule:evenodd;stroke:none;stroke-width:1.0000000pt;stroke-linecap:butt;stroke-linejoin:miter;stroke-opacity:1.0000000;"
       d="M -336.73295,859.39370 C -337.74958,861.86267 -338.76622,863.89594 -338.47575,866.36491 C -316.40022,904.85185 -149.23619,891.05464 -141.53880,870.72192 C -141.53880,866.65538 -141.97450,860.84602 -141.97450,856.77948 C -154.31936,884.80959 -306.52433,896.28307 -336.73295,859.39370 z "
       id="path4295"
       sodipodi:nodetypes="ccccc"
       transform="matrix(0.877776,0.000000,0.000000,0.776531,32.28025,-776.2724)" />
    <path
       style="fill:#bebebe;fill-opacity:1.0000000;fill-rule:evenodd;stroke:none;stroke-width:1.0000000pt;stroke-linecap:butt;stroke-linejoin:miter;stroke-opacity:1.0000000;"
       d="M -149.81712,866.80061 C -190.77304,841.38471 -296.64843,846.90359 -327.58322,866.80061 C -330.63313,864.91257 -333.68304,862.58883 -336.73295,860.70079 C -318.86920,819.30917 -136.74609,833.25162 -141.97450,859.39369 C -144.58871,861.86266 -147.20291,864.33164 -149.81712,866.80061 z "
       id="path4296"
       sodipodi:nodetypes="ccccc"
       transform="matrix(0.877776,0.000000,0.000000,0.776531,32.28025,-776.2724)" />
    <path
       style="fill:#d2d2d2;fill-opacity:1.0000000;fill-rule:evenodd;stroke:none;stroke-width:1.0000000pt;stroke-linecap:butt;stroke-linejoin:miter;stroke-opacity:1.0000000;"
       d="M -150.25282,866.36491 C -198.76089,840.22284 -303.47442,848.06546 -327.14752,866.36491 C -311.75274,887.27857 -178.71863,889.45707 -150.25282,866.36491 z "
       id="path4297"
       sodipodi:nodetypes="ccc"
       transform="matrix(0.877776,0.000000,0.000000,0.776531,32.28025,-776.2724)" />
    <path
       style="fill:url(#linearGradient2260);fill-opacity:1.0000000;fill-rule:evenodd;stroke:none;stroke-width:1.0000000pt;stroke-linecap:butt;stroke-linejoin:miter;stroke-opacity:1.0000000;"
       d="M -334.96496,860.71290 C -335.98159,863.18187 -336.99823,865.21514 -336.70776,867.68411 C -314.63223,906.17105 -147.46820,892.37384 -139.77081,872.04112 C -139.77081,867.97458 -140.20651,862.16522 -140.20651,858.09868 C -152.55137,886.12879 -304.75634,897.60227 -334.96496,860.71290 z "
       id="path4298"
       sodipodi:nodetypes="ccccc"
       transform="matrix(0.877776,0.000000,0.000000,0.776531,32.28025,-776.2724)" />
    <path
       style="fill:url(#linearGradient2262);fill-opacity:1.0000000;fill-rule:evenodd;stroke:none;stroke-width:1.0000000pt;stroke-linecap:butt;stroke-linejoin:miter;stroke-opacity:1.0000000;"
       d="M -150.52588,866.82761 C -191.48180,841.41171 -297.35719,846.93059 -328.29198,866.82761 C -331.34189,864.93957 -334.39180,862.61583 -337.44171,860.72779 C -319.57796,819.33617 -137.45485,833.27862 -142.68326,859.42069 C -145.29747,861.88966 -147.91167,864.35864 -150.52588,866.82761 z "
       id="path4299"
       sodipodi:nodetypes="ccccc"
       transform="matrix(0.877776,0.000000,0.000000,0.776531,32.28025,-776.2724)" />
    <path
       style="fill:url(#linearGradient2264);fill-opacity:1.0000000;fill-rule:evenodd;stroke:none;stroke-width:1.0000000pt;stroke-linecap:butt;stroke-linejoin:miter;stroke-opacity:1.0000000;"
       d="M -150.68853,867.37686 C -199.19660,841.23479 -303.91013,849.07741 -327.58323,867.37686 C -312.18845,888.29052 -179.15434,890.46902 -150.68853,867.37686 z "
       id="path4300"
       sodipodi:nodetypes="ccc"
       transform="matrix(0.877776,0.000000,0.000000,0.776531,32.28025,-776.2724)" />
    <path
       style="fill:#000000;fill-opacity:1.0000000;fill-rule:evenodd;stroke:none;stroke-width:1.0000000pt;stroke-linecap:butt;stroke-linejoin:miter;stroke-opacity:1.0000000;"
       d="M -197.74426,857.65089 L -220.40073,866.80061 L -225.62914,868.10772 L -242.62149,869.41482 L -260.48524,867.23631 L -267.45646,864.62211 L -269.63496,862.87930 L -268.76356,868.10772 L -266.14935,869.85052 L -250.02841,872.46473 L -228.67905,874.20753 L -221.70783,874.20753 L -216.04371,872.02903 L -200.35847,865.05781 L -197.30856,862.87930 L -197.74426,857.65089 z "
       id="path4301"
       transform="matrix(0.877776,0.000000,0.000000,0.776531,32.28025,-776.2724)" />
    <path
       style="fill:#e6e6e6;fill-opacity:1.0000000;fill-rule:evenodd;stroke:none;stroke-width:1.0000000pt;stroke-linecap:butt;stroke-linejoin:miter;stroke-opacity:1.0000000;"
       d="M -240.89157,851.12336 L -250.01657,853.27961 L -253.51657,855.46711 L -266.14157,859.40461 L -269.64157,861.99836 L -266.14157,865.06086 L -258.29782,867.68586 L -249.57907,868.96711 L -240.01657,869.40461 L -224.76657,868.12336 L -219.07907,866.37336 L -206.01657,861.56086 L -197.29782,857.21711 L -207.76657,852.43586 L -216.04782,851.12336 L -232.17282,851.56086 L -240.89157,851.12336 z M -240.89157,853.71711 L -235.64157,853.71711 L -228.23532,854.15461 L -220.82907,853.71711 L -213.86032,854.59211 L -207.76657,855.46711 L -206.01657,857.21711 L -209.51657,857.65461 L -213.86032,856.34211 L -219.95407,856.34211 L -226.92282,856.34211 L -235.64157,856.34211 L -241.73532,855.46711 L -240.89157,853.71711 z M -237.82907,858.96711 L -231.73532,860.27961 L -226.48532,860.27961 L -223.89157,861.99836 L -225.20407,864.18586 L -228.67282,866.37336 L -233.48532,865.06086 L -234.32907,863.74836 L -237.39157,862.87336 L -243.48532,861.99836 L -248.29782,862.43586 L -250.01657,865.06086 L -253.07907,865.06086 L -256.57907,864.18586 L -257.86032,861.12336 L -256.57907,860.27961 L -253.07907,860.27961 L -247.86032,860.68586 L -243.04782,859.40461 L -237.82907,858.96711 z "
       id="path4302"
       transform="matrix(0.877776,0.000000,0.000000,0.776531,32.28025,-776.2724)" />
    <path
       style="fill:#000000;fill-opacity:1.0000000;fill-rule:evenodd;stroke:none;stroke-width:1.0000000pt;stroke-linecap:butt;stroke-linejoin:miter;stroke-opacity:1.0000000;"
       d="M -224.10419,862.22575 L -224.75774,863.53285 L -225.84699,862.87930 L -230.42185,861.79005 L -234.34317,861.57219 L -241.96794,861.35434 L -247.19635,862.00790 L -251.11766,862.87930 L -254.60327,862.00790 L -256.78178,863.31500 L -257.43533,860.91864 L -255.47468,860.26509 L -247.63205,860.91864 L -244.80000,859.82939 L -237.61093,859.39369 L -231.94681,860.48294 L -228.89690,860.04724 L -226.50054,860.70079 L -224.10419,862.22575 z "
       id="path4303"
       transform="matrix(0.877776,0.000000,0.000000,0.776531,32.28025,-776.2724)" />
    <path
       style="fill:#000000;fill-opacity:1.0000000;fill-rule:evenodd;stroke:none;stroke-width:1.0000000pt;stroke-linecap:butt;stroke-linejoin:miter;stroke-opacity:1.0000000;"
       d="M -206.67614,856.99733 L -208.20109,855.25453 L -216.69727,854.38312 L -220.83643,853.94742 L -224.75774,853.94742 L -229.11475,854.16527 L -234.12532,854.38312 L -238.70018,853.72957 L -241.31439,853.72957 L -241.09654,855.03668 L -235.21457,855.25453 L -229.98615,855.90808 L -226.28269,855.47238 L -221.92568,855.47238 L -217.56867,856.12593 L -214.08306,856.12593 L -209.29035,857.43303 L -206.67614,856.99733 z "
       id="path4304"
       transform="matrix(0.877776,0.000000,0.000000,0.776531,32.28025,-776.2724)" />
    <path
       style="fill:url(#linearGradient2271);fill-opacity:1.0000000;fill-rule:evenodd;stroke:none;stroke-width:1.0000000pt;stroke-linecap:butt;stroke-linejoin:miter;stroke-opacity:1.0000000;"
       d="M -324.40570,1280.7442 C -292.76237,1327.0519 -153.72509,1307.5905 -146.89483,1279.8728 C -198.88851,1309.7910 -281.12604,1310.0814 -324.40570,1280.7442 z "
       id="path4305"
       sodipodi:nodetypes="ccc"
       transform="matrix(0.877776,0.000000,0.000000,0.776531,32.28025,-776.2724)" />
    <path
       style="fill:#ff6e00;fill-opacity:1.0000000;fill-rule:evenodd;stroke:none;stroke-width:6.2500000;stroke-linecap:butt;stroke-linejoin:miter;stroke-miterlimit:4.0000000;stroke-opacity:1.0000000;"
       d="M -122.67460,1109.2976 C -146.09351,1170.2367 -178.48776,1192.0952 -224.02453,1192.0952 C -269.56130,1192.0952 -287.51203,1142.6375 -264.09313,1081.6985 C -240.67422,1020.7594 -165.85439,967.62178 -120.31763,967.62178"
       id="path4306"
       sodipodi:nodetypes="cccc"
       transform="matrix(0.877776,0.000000,0.000000,0.776531,32.28025,-776.2724)" />
    <path
       style="fill:#ffffff;fill-opacity:1.0000000;fill-rule:evenodd;stroke:none;stroke-width:6.2500000;stroke-linecap:butt;stroke-linejoin:miter;stroke-miterlimit:4.0000000;stroke-opacity:1.0000000;"
       d="M -121.13978,963.27525 C -166.67654,963.27525 -241.50211,1016.3986 -264.92103,1077.3376 C -288.33993,1138.2766 -270.39529,1187.7441 -224.85853,1187.7440 C -179.32176,1187.7440 -146.93369,1165.8704 -123.51478,1104.9314 M -122.51951,1109.3763 C -121.09151,1126.8332 -139.13383,1121.7385 -147.92103,1136.1189 C -163.01585,1163.1059 -193.53061,1181.2236 -224.67103,1179.2439 C -243.28391,1180.6916 -259.81329,1166.2891 -264.38978,1148.8376 C -271.96839,1113.2729 -259.47772,1075.9572 -238.63978,1047.0876 C -214.71471,1015.1476 -182.23076,988.52205 -144.07728,975.74395 C -139.13978,974.47315 -134.20228,966.23112 -122.29356,963.21752"
       id="path4307"
       sodipodi:nodetypes="ccccccccccc"
       transform="matrix(0.877776,0.000000,0.000000,0.776531,32.28025,-776.2724)" />
    <path
       transform="matrix(2.529277,-4.562630,1.175143,3.505820,32.28025,-776.2724)"
       style="font-size:18.000000;font-style:normal;font-variant:normal;font-weight:normal;font-stretch:normal;fill:#000000;fill-opacity:1.0000000;stroke:none;stroke-width:1.0000000pt;stroke-linecap:butt;stroke-linejoin:miter;stroke-opacity:1.0000000;font-family:Almonte;text-anchor:start;writing-mode:lr;"
       d="M -91.684346,98.115847 L -91.684346,93.327847 C -91.684349,93.111855 -91.792349,93.003855 -92.008346,93.003847 C -92.236349,93.003855 -92.350349,93.111855 -92.350346,93.327847 L -92.350346,98.115847 C -92.350349,98.331849 -92.236349,98.439849 -92.008346,98.439847 C -91.792349,98.439849 -91.684349,98.331849 -91.684346,98.115847 M -88.930346,98.115847 C -88.930352,98.967849 -89.236352,99.693848 -89.848346,100.29385 C -90.448351,100.89385 -91.168350,101.19385 -92.008346,101.19385 C -92.860348,101.19385 -93.592347,100.89385 -94.204346,100.29385 C -94.804346,99.693848 -95.104346,98.967849 -95.104346,98.115847 L -95.104346,93.327847 C -95.104346,92.475855 -94.804346,91.749856 -94.204346,91.149847 C -93.592347,90.549857 -92.860348,90.249858 -92.008346,90.249847 C -91.168350,90.249858 -90.448351,90.549857 -89.848346,91.149847 C -89.236352,91.749856 -88.930352,92.475855 -88.930346,93.327847 L -88.930346,98.115847 M -96.185471,98.115847 C -96.185477,98.967849 -96.485477,99.693848 -97.085471,100.29385 C -97.685476,100.89385 -98.411475,101.19385 -99.263471,101.19385 C -100.11547,101.19385 -100.84147,100.89385 -101.44147,100.29385 C -102.04147,99.693848 -102.34147,98.967849 -102.34147,98.115847 L -102.34147,96.603847 L -99.587471,96.603847 L -99.587471,98.115847 C -99.587474,98.331849 -99.479474,98.439849 -99.263471,98.439847 C -99.047474,98.439849 -98.939475,98.331849 -98.939471,98.115847 C -98.939475,97.095851 -99.233474,96.285852 -99.821471,95.685847 C -100.37347,95.169853 -100.91947,94.647853 -101.45947,94.119847 C -102.04747,93.315855 -102.34147,92.151856 -102.34147,90.627847 C -102.34147,89.775858 -102.04147,89.049859 -101.44147,88.449847 C -100.84147,87.849860 -100.11547,87.549860 -99.263471,87.549847 C -98.411475,87.549860 -97.685476,87.849860 -97.085471,88.449847 C -96.485477,89.049859 -96.185477,89.775858 -96.185471,90.627847 L -96.185471,92.139847 L -98.939471,92.139847 L -98.939471,90.627847 C -98.939475,90.411857 -99.047474,90.303858 -99.263471,90.303847 C -99.479474,90.303858 -99.587474,90.411857 -99.587471,90.627847 C -99.587474,91.611856 -99.293474,92.433855 -98.705471,93.093847 C -98.165475,93.669854 -97.619476,94.245854 -97.067471,94.821847 C -96.479477,95.649852 -96.185477,96.747851 -96.185471,98.115847 M -110.52894,98.115847 L -110.52894,96.189847 C -110.96094,96.477851 -111.17694,96.801851 -111.17694,97.161847 L -111.17694,98.115847 C -111.17694,98.331849 -111.06894,98.439849 -110.85294,98.439847 C -110.63694,98.439849 -110.52894,98.331849 -110.52894,98.115847 M -106.74894,99.807847 C -106.74895,100.19185 -106.86295,100.50985 -107.09094,100.76185 C -107.31895,101.02585 -107.61895,101.15785 -107.99094,101.15785 C -108.57895,101.15785 -108.93894,100.88785 -109.07094,100.34785 C -109.45494,100.91185 -110.04894,101.19385 -110.85294,101.19385 C -111.70494,101.19385 -112.43094,100.89385 -113.03094,100.29385 C -113.63094,99.693848 -113.93094,98.967849 -113.93094,98.115847 C -113.93094,97.287851 -113.63694,96.591851 -113.04894,96.027847 C -112.70094,95.691852 -112.15494,95.343852 -111.41094,94.983847 C -110.82294,94.707853 -110.52894,94.503853 -110.52894,94.371847 L -110.52894,93.327847 C -110.52894,93.075855 -110.64294,92.949855 -110.87094,92.949847 C -111.08694,92.949855 -111.19494,93.153855 -111.19494,93.561847 C -111.19494,93.621854 -111.19494,93.699854 -111.19494,93.795847 C -111.18294,93.891854 -111.17694,93.951854 -111.17694,93.975847 L -113.75094,93.975847 L -113.75094,93.327847 C -113.75094,92.391855 -113.49894,91.647856 -112.99494,91.095847 C -112.49094,90.531857 -111.77694,90.249858 -110.85294,90.249847 C -110.00094,90.249858 -109.27494,90.549857 -108.67494,91.149847 C -108.07495,91.749856 -107.77495,92.475855 -107.77494,93.327847 L -107.77494,98.439847 L -106.74894,98.439847 L -106.74894,99.807847 M -117.85353,98.115847 L -117.85353,93.327847 C -117.85354,93.111855 -117.96154,93.003855 -118.17753,93.003847 C -118.39354,93.003855 -118.50154,93.111855 -118.50153,93.327847 L -118.50153,98.115847 C -118.50154,98.331849 -118.39354,98.439849 -118.17753,98.439847 C -117.96154,98.439849 -117.85354,98.331849 -117.85353,98.115847 M -115.09953,101.19385 C -115.55554,100.97785 -115.97554,100.86985 -116.35953,100.86985 C -116.59954,100.86985 -116.95354,100.92385 -117.42153,101.03185 C -117.88954,101.15185 -118.24354,101.21185 -118.48353,101.21185 C -119.26354,101.21185 -119.92354,100.89385 -120.46353,100.25785 C -120.99153,99.621848 -121.25553,98.907849 -121.25553,98.115847 L -121.25553,93.327847 C -121.25553,92.451855 -120.94953,91.719856 -120.33753,91.131847 C -119.72554,90.543857 -118.98154,90.249858 -118.10553,90.249847 C -118.02154,90.249858 -117.93754,90.255858 -117.85353,90.267847 L -117.85353,87.279847 L -115.09953,87.279847 L -115.09953,101.19385 M -125.01247,98.115847 L -125.01247,93.327847 C -125.01247,93.111855 -125.12047,93.003855 -125.33647,93.003847 C -125.56447,93.003855 -125.67847,93.111855 -125.67847,93.327847 L -125.67847,98.115847 C -125.67847,98.331849 -125.56447,98.439849 -125.33647,98.439847 C -125.12047,98.439849 -125.01247,98.331849 -125.01247,98.115847 M -122.25847,98.115847 C -122.25848,98.967849 -122.56448,99.693848 -123.17647,100.29385 C -123.77648,100.89385 -124.49647,101.19385 -125.33647,101.19385 C -126.18847,101.19385 -126.92047,100.89385 -127.53247,100.29385 C -128.13247,99.693848 -128.43247,98.967849 -128.43247,98.115847 L -128.43247,93.327847 C -128.43247,92.475855 -128.13247,91.749856 -127.53247,91.149847 C -126.92047,90.549857 -126.18847,90.249858 -125.33647,90.249847 C -124.49647,90.249858 -123.77648,90.549857 -123.17647,91.149847 C -122.56448,91.749856 -122.25848,92.475855 -122.25847,93.327847 L -122.25847,98.115847 M -129.51360,98.115847 C -129.51360,98.967849 -129.81360,99.693848 -130.41360,100.29385 C -131.01360,100.89385 -131.73960,101.19385 -132.59160,101.19385 C -133.44360,101.19385 -134.16960,100.89385 -134.76960,100.29385 C -135.36960,99.693848 -135.66960,98.967849 -135.66960,98.115847 L -135.66960,96.603847 L -132.91560,96.603847 L -132.91560,98.115847 C -132.91560,98.331849 -132.80760,98.439849 -132.59160,98.439847 C -132.37560,98.439849 -132.26760,98.331849 -132.26760,98.115847 C -132.26760,97.095851 -132.56160,96.285852 -133.14960,95.685847 C -133.70160,95.169853 -134.24760,94.647853 -134.78760,94.119847 C -135.37560,93.315855 -135.66960,92.151856 -135.66960,90.627847 C -135.66960,89.775858 -135.36960,89.049859 -134.76960,88.449847 C -134.16960,87.849860 -133.44360,87.549860 -132.59160,87.549847 C -131.73960,87.549860 -131.01360,87.849860 -130.41360,88.449847 C -129.81360,89.049859 -129.51360,89.775858 -129.51360,90.627847 L -129.51360,92.139847 L -132.26760,92.139847 L -132.26760,90.627847 C -132.26760,90.411857 -132.37560,90.303858 -132.59160,90.303847 C -132.80760,90.303858 -132.91560,90.411857 -132.91560,90.627847 C -132.91560,91.611856 -132.62160,92.433855 -132.03360,93.093847 C -131.49360,93.669854 -130.94760,94.245854 -130.39560,94.821847 C -129.80760,95.649852 -129.51360,96.747851 -129.51360,98.115847"
       id="text4308" />
    <path
       style="font-size:18.000000;font-style:normal;font-variant:normal;font-weight:normal;font-stretch:normal;fill:#ffffff;fill-opacity:1.0000000;stroke:none;stroke-width:1.0000000pt;stroke-linecap:butt;stroke-linejoin:miter;stroke-opacity:1.0000000;font-family:Almonte;text-anchor:start;writing-mode:lr;"
       d="M -84.915133,-20.041516 L -90.541718,-36.827383 C -90.795550,-37.584598 -91.195627,-37.470463 -91.741950,-36.484976 C -92.318625,-35.444657 -92.480047,-34.545889 -92.226216,-33.788671 L -86.599632,-17.002805 C -86.345806,-16.245527 -85.930554,-16.387037 -85.353873,-17.427339 C -84.807556,-18.412843 -84.661310,-19.284235 -84.915133,-20.041516 M -77.949504,-32.606999 C -76.948297,-29.620004 -76.869102,-25.678619 -77.711919,-20.782829 C -78.524412,-15.941736 -79.992948,-11.604903 -82.117529,-7.7723105 C -84.272481,-3.8849414 -86.476451,-1.5968419 -88.729450,-0.90801300 C -90.952102,-0.27392030 -92.564037,-1.4503545 -93.565261,-4.4373220 L -99.191845,-21.223188 C -100.19306,-24.210117 -100.28743,-28.124126 -99.474955,-32.965231 C -98.632115,-37.861009 -97.133233,-42.252597 -94.978294,-46.140004 C -92.853700,-49.972559 -90.680080,-52.205903 -88.457427,-52.840047 C -86.204429,-53.528825 -84.577318,-52.379766 -83.576089,-49.392866 L -77.949504,-32.606999 M -96.299725,0.49545140 C -95.298518,3.4824481 -95.204148,7.3964575 -96.016613,12.237494 C -96.829107,17.078589 -98.312815,21.442797 -100.46775,25.330141 C -102.62271,29.217510 -104.81150,31.478237 -107.03415,32.112309 C -109.25680,32.746403 -110.86874,31.569970 -111.86996,28.583000 L -113.64677,23.282200 L -106.68115,10.716717 L -104.90433,16.017517 C -104.65051,16.774799 -104.25043,16.660664 -103.70410,15.675112 C -103.15778,14.689609 -103.01154,13.818217 -103.26536,13.060935 C -104.46401,9.4850268 -106.15948,7.9867279 -108.35178,8.5660296 C -110.35431,9.2756295 -112.34872,9.9367864 -114.33501,10.549504 C -116.76703,10.413680 -118.87850,7.6743220 -120.66943,2.3314197 C -121.67064,-0.65549580 -121.76501,-4.5695101 -120.95254,-9.4106231 C -120.14005,-14.251634 -118.65634,-18.615849 -116.50141,-22.503267 C -114.34646,-26.390562 -112.15766,-28.651282 -109.93501,-29.285438 C -107.71236,-29.919455 -106.10043,-28.743018 -105.09920,-25.756129 L -103.32238,-20.455329 L -110.28801,-7.8898459 L -112.06483,-13.190646 C -112.31866,-13.947849 -112.71874,-13.833714 -113.26506,-12.848239 C -113.81138,-11.862660 -113.95763,-10.991267 -113.70380,-10.234063 C -112.54746,-6.7842867 -110.83789,-5.2439189 -108.57508,-5.6129490 C -106.53239,-6.0573705 -104.47452,-6.5292154 -102.40147,-7.0284800 C -99.941245,-6.8084403 -97.907333,-4.3004653 -96.299725,0.49545140 M -132.57834,65.939392 L -134.84166,59.187182 C -135.59587,62.167942 -135.76145,64.289356 -135.33839,65.551424 L -134.21731,68.895976 C -133.96348,69.653254 -133.56340,69.539118 -133.01707,68.553569 C -132.47076,67.568067 -132.32451,66.696674 -132.57834,65.939392 M -121.02933,54.624498 C -120.57809,55.970769 -120.49273,57.605760 -120.77325,59.529469 C -121.03971,61.495314 -121.64337,63.326871 -122.58425,65.024141 C -124.07148,67.706991 -125.29930,68.402970 -126.26773,67.112067 C -126.57620,70.841423 -127.74720,74.540258 -129.78073,78.208598 C -131.93568,82.095969 -134.12448,84.356691 -136.34713,84.990768 C -138.56978,85.624862 -140.18171,84.448429 -141.18294,81.461459 C -142.15595,78.558655 -142.23024,74.777195 -141.40581,70.117067 C -140.92047,67.351343 -139.94844,63.640122 -138.48971,58.983403 C -137.32683,55.333010 -136.82296,53.276409 -136.97807,52.813602 L -138.20492,49.153525 C -138.50106,48.270102 -138.93746,48.348512 -139.51414,49.388745 C -140.06046,50.374315 -140.09389,51.582263 -139.61444,53.012599 C -139.54393,53.222986 -139.45226,53.496440 -139.33945,53.832961 C -139.19629,54.114806 -139.11060,54.297780 -139.08240,54.381881 L -145.59276,66.126091 L -146.35425,63.854319 C -147.45418,60.572904 -147.69111,56.814795 -147.06504,52.579981 C -146.45305,48.303177 -144.97854,44.056822 -142.64150,39.840904 C -140.48655,35.953596 -138.29775,33.692877 -136.07510,33.058733 C -133.85245,32.424706 -132.24052,33.601144 -131.23929,36.588042 L -125.23196,54.509794 L -122.63692,49.828536 L -121.02933,54.624498 M -151.10426,99.358804 L -156.73085,82.572938 C -156.98468,81.815723 -157.38476,81.929859 -157.93108,82.915344 C -158.47740,83.900911 -158.62365,84.772303 -158.36982,85.529522 L -152.74323,102.31538 C -152.48941,103.07266 -152.08933,102.95853 -151.54300,101.97298 C -150.99669,100.98748 -150.85044,100.11609 -151.10426,99.358804 M -140.52154,97.584235 C -141.92874,98.907561 -143.11795,100.44524 -144.08918,102.19726 C -144.69622,103.29231 -145.52812,105.09680 -146.58490,107.61071 C -147.62759,110.16674 -148.45245,111.99226 -149.05946,113.08727 C -151.03231,116.64613 -153.07532,118.54262 -155.18852,118.77673 C -157.27137,118.95610 -158.77815,117.65749 -159.70886,114.88087 L -165.33545,98.095005 C -166.36487,95.023939 -166.45111,91.061518 -165.59419,86.207730 C -164.73725,81.354022 -163.20096,76.928719 -160.98532,72.931807 C -160.77285,72.548599 -160.55334,72.186373 -160.32678,71.845129 L -163.83811,61.369738 L -156.87248,48.804255 L -140.52154,97.584235 M -169.21120,132.02238 L -174.83778,115.23651 C -175.09161,114.47930 -175.49169,114.59343 -176.03801,115.57892 C -176.61469,116.61924 -176.77611,117.51801 -176.52228,118.27523 L -170.89570,135.06109 C -170.64187,135.81837 -170.22662,135.67686 -169.64994,134.63656 C -169.10362,133.65105 -168.95737,132.77966 -169.21120,132.02238 M -162.24557,119.45690 C -161.24436,122.44389 -161.16517,126.38528 -162.00798,131.28107 C -162.82048,136.12216 -164.28901,140.45900 -166.41359,144.29159 C -168.56855,148.17896 -170.77252,150.46705 -173.02551,151.15588 C -175.24817,151.78998 -176.86010,150.61354 -177.86132,147.62657 L -183.48791,130.84071 C -184.48912,127.85378 -184.58349,123.93977 -183.77102,119.09867 C -182.92818,114.20289 -181.42930,109.81130 -179.27436,105.92389 C -177.14977,102.09134 -174.97614,99.857998 -172.75349,99.223854 C -170.50049,98.535080 -168.87338,99.684137 -167.87215,102.67103 L -162.24557,119.45690 M -180.59579,152.55935 C -179.59458,155.54635 -179.50021,159.46036 -180.31268,164.30139 C -181.12517,169.14249 -182.60888,173.50670 -184.76381,177.39404 C -186.91877,181.28141 -189.10756,183.54213 -191.33021,184.17621 C -193.55286,184.81030 -195.16480,183.63387 -196.16602,180.64690 L -197.94283,175.34610 L -190.97721,162.78062 L -189.20039,168.08141 C -188.94657,168.83870 -188.54649,168.72456 -188.00016,167.73901 C -187.45384,166.75351 -187.30759,165.88211 -187.56142,165.12483 C -188.76007,161.54892 -190.45554,160.05063 -192.64784,160.62993 C -194.65037,161.33953 -196.64478,162.00068 -198.63107,162.61340 C -201.06309,162.47758 -203.17456,159.73822 -204.96549,154.39532 C -205.96670,151.40840 -206.06107,147.49439 -205.24860,142.65327 C -204.43611,137.81226 -202.95240,133.44805 -200.79746,129.56063 C -198.64252,125.67334 -196.45372,123.41262 -194.23107,122.77846 C -192.00842,122.14444 -190.39649,123.32088 -189.39526,126.30777 L -187.61844,131.60857 L -194.58407,144.17405 L -196.36089,138.87325 C -196.61472,138.11605 -197.01480,138.23018 -197.56112,139.21566 C -198.10744,140.20124 -198.25369,141.07263 -197.99986,141.82983 C -196.84352,145.27961 -195.13395,146.81998 -192.87114,146.45095 C -190.82845,146.00653 -188.77058,145.53468 -186.69753,145.03542 C -184.23731,145.25546 -182.20340,147.76343 -180.59579,152.55935"
       id="text4311" />
    <path
       style="fill:url(#linearGradient2273);fill-opacity:1.0000000;fill-rule:evenodd;stroke:none;stroke-width:1.0000000pt;stroke-linecap:butt;stroke-linejoin:miter;stroke-opacity:1.0000000;"
       d="M -265.20810,-103.72939 L -265.97300,-95.947697 L -282.03581,-70.572528 L -284.33050,-62.452498 L -278.97624,196.03581 C -239.96653,254.90618 -90.811776,237.31278 -77.043646,194.00580 L -75.513846,-68.542520 L -77.808536,-75.309212 L -91.576676,-94.256024 L -93.871356,-101.02272 C -107.38453,-83.654823 -247.87045,-77.790383 -265.20810,-103.72939 z "
       id="path4314"
       sodipodi:nodetypes="ccccccccccc" />
  </g>
</svg>
