<?xml version="1.0" encoding="UTF-8" standalone="no"?>
<!-- Created with Inkscape (http://www.inkscape.org/) -->
<svg
   xmlns:dc="http://purl.org/dc/elements/1.1/"
   xmlns:cc="http://creativecommons.org/ns#"
   xmlns:rdf="http://www.w3.org/1999/02/22-rdf-syntax-ns#"
   xmlns:svg="http://www.w3.org/2000/svg"
   xmlns="http://www.w3.org/2000/svg"
   xmlns:sodipodi="http://sodipodi.sourceforge.net/DTD/sodipodi-0.dtd"
   xmlns:inkscape="http://www.inkscape.org/namespaces/inkscape"
   width="512"
   height="512"
   id="svg2"
   sodipodi:version="0.32"
   inkscape:version="0.46"
   version="1.0"
   sodipodi:docname="12_round_.svg"
   inkscape:output_extension="org.inkscape.output.svg.inkscape">
  <defs
     id="defs4">
    <inkscape:perspective
       sodipodi:type="inkscape:persp3d"
       inkscape:vp_x="0 : 526.18109 : 1"
       inkscape:vp_y="0 : 1000 : 0"
       inkscape:vp_z="744.09448 : 526.18109 : 1"
       inkscape:persp3d-origin="372.04724 : 350.78739 : 1"
       id="perspective10" />
  </defs>
  <sodipodi:namedview
     id="base"
     pagecolor="#000000"
     bordercolor="#666666"
     borderopacity="1.0"
     gridtolerance="10000"
     guidetolerance="10"
     objecttolerance="10"
     inkscape:pageopacity="0"
     inkscape:pageshadow="2"
     inkscape:zoom="0.35"
     inkscape:cx="-127.85714"
     inkscape:cy="177.14286"
     inkscape:document-units="px"
     inkscape:current-layer="layer1"
     showgrid="false"
     inkscape:window-width="1385"
     inkscape:window-height="827"
     inkscape:window-x="0"
     inkscape:window-y="25" />
  <metadata
     id="metadata7">
    <rdf:RDF>
      <cc:Work
         rdf:about="">
        <dc:format>image/svg+xml</dc:format>
        <dc:type
           rdf:resource="http://purl.org/dc/dcmitype/StillImage" />
        <cc:license
           rdf:resource="http://www.gnu.org/copyleft/gpl.html" />
        <dc:creator>
          <cc:Agent>
            <dc:title>Nadia Alramli</dc:title>
          </cc:Agent>
        </dc:creator>
      </cc:Work>
    </rdf:RDF>
  </metadata>
  <g
     inkscape:label="Layer 1"
     inkscape:groupmode="layer"
     id="layer1">
    <rect
       style="opacity:1;fill:#000000;fill-opacity:1;fill-rule:nonzero;stroke:#000000;stroke-width:1.04597341999999993;stroke-linecap:round;stroke-linejoin:round;stroke-miterlimit:4;stroke-dasharray:none;stroke-opacity:1"
       id="rect2419"
       width="510.95404"
       height="510.95404"
       x="0.52298671"
       y="0.5230003" />
    <path
       sodipodi:type="star"
       style="opacity:1;fill:#ffffff;fill-opacity:1;fill-rule:nonzero;stroke:none;stroke-width:1;stroke-linecap:round;stroke-linejoin:round;stroke-miterlimit:4;stroke-dasharray:none;stroke-opacity:1"
       id="path2397"
       sodipodi:sides="12"
       sodipodi:cx="134.28571"
       sodipodi:cy="86.285713"
       sodipodi:r1="398.87598"
       sodipodi:r2="343.13058"
       sodipodi:arg1="1.5707963"
       sodipodi:arg2="1.8325957"
       inkscape:flatsided="false"
       inkscape:rounded="0.32928124"
       inkscape:randomized="0"
       d="M 134.28572,485.16169 C 97.567124,485.16169 80.944416,427.22788 45.47698,417.72441 C 10.009546,408.22094 -33.353042,450.08174 -65.152273,431.72245 C -96.951507,413.36315 -82.380288,354.87964 -108.34425,328.91568 C -134.30822,302.95172 -192.79172,317.52294 -211.15102,285.72371 C -229.51031,253.92448 -187.64951,210.56188 -197.15299,175.09445 C -206.65646,139.62701 -264.59027,123.00431 -264.59027,86.285724 C -264.59027,49.567132 -206.65646,32.944424 -197.15299,-2.5230122 C -187.64952,-37.990446 -229.51032,-81.353035 -211.15103,-113.15227 C -192.79173,-144.9515 -134.30823,-130.38028 -108.34426,-156.34425 C -82.380299,-182.30821 -96.951523,-240.79172 -65.152292,-259.15101 C -33.353059,-277.51031 10.009535,-235.64951 45.47697,-245.15298 C 80.944404,-254.65645 97.567106,-312.59026 134.28569,-312.59026 C 171.00429,-312.59026 187.62699,-254.65645 223.09443,-245.15298 C 258.56186,-235.64951 301.92445,-277.51031 333.72368,-259.15102 C 365.52292,-240.79173 350.9517,-182.30822 376.91567,-156.34425 C 402.87963,-130.38029 461.36313,-144.95152 479.72243,-113.15228 C 498.08173,-81.353051 456.22093,-37.990458 465.7244,-2.5230219 C 475.22787,32.944411 533.16168,49.567113 533.16168,86.285703 C 533.16168,123.00429 475.22787,139.627 465.7244,175.09444 C 456.22093,210.56187 498.08173,253.92446 479.72244,285.72369 C 461.36314,317.52293 402.87964,302.95171 376.91567,328.91567 C 350.95171,354.87964 365.52293,413.36314 333.7237,431.72244 C 301.92447,450.08173 258.56188,408.22093 223.09444,417.72441 C 187.62701,427.22788 171.00431,485.16169 134.28572,485.16169 z"
       transform="matrix(0.6418035,0,0,0.6418035,169.81496,200.62153)" />
  </g>
</svg>
