<?xml version="1.0" encoding="UTF-8" standalone="no"?>
<!-- Created with Inkscape (http://www.inkscape.org/) -->
<svg
   xmlns:dc="http://purl.org/dc/elements/1.1/"
   xmlns:cc="http://creativecommons.org/ns#"
   xmlns:rdf="http://www.w3.org/1999/02/22-rdf-syntax-ns#"
   xmlns:svg="http://www.w3.org/2000/svg"
   xmlns="http://www.w3.org/2000/svg"
   xmlns:sodipodi="http://sodipodi.sourceforge.net/DTD/sodipodi-0.dtd"
   xmlns:inkscape="http://www.inkscape.org/namespaces/inkscape"
   width="512"
   height="512"
   id="svg2"
   sodipodi:version="0.32"
   inkscape:version="0.46"
   version="1.0"
   sodipodi:docname="13_round.svg"
   inkscape:output_extension="org.inkscape.output.svg.inkscape">
  <defs
     id="defs4">
    <inkscape:perspective
       sodipodi:type="inkscape:persp3d"
       inkscape:vp_x="0 : 526.18109 : 1"
       inkscape:vp_y="0 : 1000 : 0"
       inkscape:vp_z="744.09448 : 526.18109 : 1"
       inkscape:persp3d-origin="372.04724 : 350.78739 : 1"
       id="perspective10" />
  </defs>
  <sodipodi:namedview
     id="base"
     pagecolor="#000000"
     bordercolor="#666666"
     borderopacity="1.0"
     gridtolerance="10000"
     guidetolerance="10"
     objecttolerance="10"
     inkscape:pageopacity="0"
     inkscape:pageshadow="2"
     inkscape:zoom="0.35"
     inkscape:cx="-127.85714"
     inkscape:cy="177.14286"
     inkscape:document-units="px"
     inkscape:current-layer="layer1"
     showgrid="false"
     inkscape:window-width="1385"
     inkscape:window-height="827"
     inkscape:window-x="0"
     inkscape:window-y="25" />
  <metadata
     id="metadata7">
    <rdf:RDF>
      <cc:Work
         rdf:about="">
        <dc:format>image/svg+xml</dc:format>
        <dc:type
           rdf:resource="http://purl.org/dc/dcmitype/StillImage" />
        <cc:license
           rdf:resource="http://www.gnu.org/copyleft/gpl.html" />
        <dc:creator>
          <cc:Agent>
            <dc:title>Nadia Alramli</dc:title>
          </cc:Agent>
        </dc:creator>
      </cc:Work>
    </rdf:RDF>
  </metadata>
  <g
     inkscape:label="Layer 1"
     inkscape:groupmode="layer"
     id="layer1">
    <rect
       style="opacity:1;fill:#000000;fill-opacity:1;fill-rule:nonzero;stroke:#000000;stroke-width:1.04597341999999993;stroke-linecap:round;stroke-linejoin:round;stroke-miterlimit:4;stroke-dasharray:none;stroke-opacity:1"
       id="rect2419"
       width="510.95404"
       height="510.95404"
       x="0.52298671"
       y="0.5230003" />
    <path
       sodipodi:type="star"
       style="opacity:1;fill:#ffffff;fill-opacity:1;fill-rule:nonzero;stroke:#000000;stroke-width:1;stroke-linecap:round;stroke-linejoin:round;stroke-miterlimit:4;stroke-dasharray:none;stroke-opacity:1"
       id="path2397"
       sodipodi:sides="13"
       sodipodi:cx="134.28571"
       sodipodi:cy="86.285713"
       sodipodi:r1="398.87598"
       sodipodi:r2="365.96579"
       sodipodi:arg1="1.5707963"
       sodipodi:arg2="1.8155796"
       inkscape:flatsided="false"
       inkscape:rounded="0.46009712"
       inkscape:randomized="0"
       d="M 134.28572,485.16169 C 88.770852,485.01901 89.787964,452.23398 45.595337,441.34202 C 2.3990753,430.69562 -11.753229,460.27127 -51.081194,439.47286 C -91.316299,418.19471 -75.179729,389.63768 -109.24861,359.45599 C -142.54937,329.95477 -168.8251,349.5658 -193.98278,312.8731 C -219.72075,275.33405 -192.16141,257.5471 -208.30177,214.98994 C -224.07823,173.39227 -256.45794,178.54604 -261.68201,134.36491 C -267.02659,89.164702 -234.358,86.2226 -228.87228,41.039305 C -223.51024,-3.1252885 -254.57612,-13.609456 -238.66982,-55.157647 C -222.39661,-97.664191 -192.10275,-85.087443 -166.24767,-122.54592 C -140.97551,-159.15986 -163.61074,-182.88017 -130.218,-212.27724 C -96.055022,-242.35238 -75.075846,-217.13796 -34.774479,-238.29034 C 4.6182543,-258.96582 -4.4008768,-290.48822 38.828426,-300.99965 C 83.054856,-311.75354 89.91327,-279.67777 135.42836,-279.67829 C 179.91726,-279.6788 186.58041,-311.7819 229.74296,-300.99965 C 273.9011,-289.9687 265.06758,-258.37976 305.36943,-237.2283 C 344.76264,-216.55373 365.58161,-241.8831 398.7894,-212.27725 C 432.76315,-181.98852 410.26133,-158.12304 436.11728,-120.66515 C 461.39028,-84.051789 491.59571,-96.804767 507.24122,-55.157667 C 523.24761,-12.549935 492.2324,-1.8752204 497.71915,43.307949 C 503.0822,87.472419 535.75439,90.217384 530.25343,134.36489 C 524.62558,179.5307 492.20219,174.56921 476.0628,217.12674 C 460.2873,258.72477 487.94143,276.33884 462.5542,312.87309 C 436.58139,350.25003 410.17763,330.78895 376.10944,360.97142 C 342.80936,390.47341 359.11021,418.92141 319.65262,439.47285 C 279.28491,460.49832 264.94955,430.99595 220.75718,441.88893 C 177.56116,452.53631 178.7744,485.30115 134.28572,485.16169 z"
       transform="matrix(0.645699,0,0,0.6504415,169.29185,196.10671)" />
  </g>
</svg>
