<?xml version="1.0" encoding="UTF-8" standalone="no"?>
<!-- Created with Inkscape (http://www.inkscape.org/) -->
<svg
   xmlns:dc="http://purl.org/dc/elements/1.1/"
   xmlns:cc="http://creativecommons.org/ns#"
   xmlns:rdf="http://www.w3.org/1999/02/22-rdf-syntax-ns#"
   xmlns:svg="http://www.w3.org/2000/svg"
   xmlns="http://www.w3.org/2000/svg"
   xmlns:sodipodi="http://sodipodi.sourceforge.net/DTD/sodipodi-0.dtd"
   xmlns:inkscape="http://www.inkscape.org/namespaces/inkscape"
   width="512"
   height="512"
   id="svg2"
   sodipodi:version="0.32"
   inkscape:version="0.46"
   version="1.0"
   sodipodi:docname="14.svg"
   inkscape:output_extension="org.inkscape.output.svg.inkscape">
  <defs
     id="defs4">
    <inkscape:perspective
       sodipodi:type="inkscape:persp3d"
       inkscape:vp_x="0 : 526.18109 : 1"
       inkscape:vp_y="0 : 1000 : 0"
       inkscape:vp_z="744.09448 : 526.18109 : 1"
       inkscape:persp3d-origin="372.04724 : 350.78739 : 1"
       id="perspective10" />
  </defs>
  <sodipodi:namedview
     id="base"
     pagecolor="#000000"
     bordercolor="#666666"
     borderopacity="1.0"
     gridtolerance="10000"
     guidetolerance="10"
     objecttolerance="10"
     inkscape:pageopacity="0"
     inkscape:pageshadow="2"
     inkscape:zoom="0.35"
     inkscape:cx="-127.85714"
     inkscape:cy="177.14286"
     inkscape:document-units="px"
     inkscape:current-layer="layer1"
     showgrid="false"
     inkscape:window-width="1385"
     inkscape:window-height="827"
     inkscape:window-x="0"
     inkscape:window-y="25" />
  <metadata
     id="metadata7">
    <rdf:RDF>
      <cc:Work
         rdf:about="">
        <dc:format>image/svg+xml</dc:format>
        <dc:type
           rdf:resource="http://purl.org/dc/dcmitype/StillImage" />
        <cc:license
           rdf:resource="http://www.gnu.org/copyleft/gpl.html" />
        <dc:creator>
          <cc:Agent>
            <dc:title>Nadia Alramli</dc:title>
          </cc:Agent>
        </dc:creator>
      </cc:Work>
    </rdf:RDF>
  </metadata>
  <g
     inkscape:label="Layer 1"
     inkscape:groupmode="layer"
     id="layer1">
    <rect
       style="opacity:1;fill:#000000;fill-opacity:1;fill-rule:nonzero;stroke:#000000;stroke-width:1.04597341999999993;stroke-linecap:round;stroke-linejoin:round;stroke-miterlimit:4;stroke-dasharray:none;stroke-opacity:1"
       id="rect2419"
       width="510.95404"
       height="510.95404"
       x="0.52298671"
       y="0.5230003" />
    <path
       sodipodi:type="star"
       style="opacity:1;fill:#ffffff;fill-opacity:1;fill-rule:nonzero;stroke:none;stroke-width:1;stroke-linecap:round;stroke-linejoin:round;stroke-miterlimit:4;stroke-dasharray:none;stroke-opacity:1"
       id="path2397"
       sodipodi:sides="14"
       sodipodi:cx="134.28571"
       sodipodi:cy="86.285713"
       sodipodi:r1="398.87598"
       sodipodi:r2="78.215637"
       sodipodi:arg1="1.5707963"
       sodipodi:arg2="-2.7830524"
       inkscape:flatsided="false"
       inkscape:rounded="0.46009712"
       inkscape:randomized="0"
       d="M 134.28572,485.16169 C 161.68131,288.03285 255.11136,102.97629 61.043796,58.839245 C -118.18541,18.07691 -140.56676,598.71006 -38.780085,445.66055 C 71.433489,279.94011 235.90409,153.74769 80.205602,29.778826 C -63.588219,-84.711407 -335.6804,428.71008 -177.56808,334.98083 C -6.3656783,233.49174 196.57005,191.15742 110.07864,11.91029 C 30.20033,-153.63165 -437.71148,190.88876 -254.58962,175.04398 C -56.307114,157.88741 144.89984,207.79602 144.74618,8.7727177 C 144.60426,-175.03331 -426.45152,-67.65048 -254.58962,-2.4725312 C -68.499304,68.101489 91.127361,200.36801 177.34189,20.987545 C 256.96448,-144.67754 -304.13066,-295.70077 -177.5681,-162.40938 C -40.527436,-18.082824 45.902925,170.34461 201.4098,46.135476 C 345.02666,-68.57666 -94.976072,-448.09395 -38.780104,-273.08912 C 22.068319,-83.595669 18.183783,123.67231 212.18296,79.235653 C 391.34901,38.19661 159.58663,-494.64668 134.28569,-312.59026 C 106.8901,-115.46142 13.46005,69.595139 207.52761,113.73218 C 386.75682,154.49452 409.13817,-426.13863 307.3515,-273.08913 C 197.13792,-107.36868 32.667321,18.823738 188.36581,142.7926 C 332.15963,257.28283 604.25181,-256.13865 446.13949,-162.4094 C 274.93709,-60.920313 72.001358,-18.585991 158.49278,160.66114 C 238.37108,326.20307 706.2829,-18.317332 523.16103,-2.4725521 C 324.87852,14.684015 123.67157,-35.224593 123.82524,163.79871 C 123.96715,347.60474 695.02293,240.22191 523.16103,175.04396 C 337.07071,104.46994 177.44405,-27.796588 91.229519,151.58388 C 11.606931,317.24896 572.70207,468.27219 446.13951,334.98081 C 309.09885,190.65425 222.66849,2.2268151 67.161609,126.43595 C -76.45525,241.14809 363.54748,620.66537 307.35152,445.66055 C 246.50309,256.1671 250.38763,48.899114 56.388449,93.335773 C -122.7776,134.37482 108.98478,667.21811 134.28572,485.16169 z"
       transform="matrix(0.5939214,0,0,0.5862725,176.24484,205.41306)" />
  </g>
</svg>
