<?xml version="1.0" encoding="UTF-8" standalone="no"?>
<!-- Created with Inkscape (http://www.inkscape.org/) -->
<svg
   xmlns:dc="http://purl.org/dc/elements/1.1/"
   xmlns:cc="http://creativecommons.org/ns#"
   xmlns:rdf="http://www.w3.org/1999/02/22-rdf-syntax-ns#"
   xmlns:svg="http://www.w3.org/2000/svg"
   xmlns="http://www.w3.org/2000/svg"
   xmlns:sodipodi="http://sodipodi.sourceforge.net/DTD/sodipodi-0.dtd"
   xmlns:inkscape="http://www.inkscape.org/namespaces/inkscape"
   width="512"
   height="512"
   id="svg2"
   sodipodi:version="0.32"
   inkscape:version="0.46"
   version="1.0"
   sodipodi:docname="cloud.svg"
   inkscape:output_extension="org.inkscape.output.svg.inkscape">
  <defs
     id="defs4">
    <inkscape:perspective
       sodipodi:type="inkscape:persp3d"
       inkscape:vp_x="0 : 526.18109 : 1"
       inkscape:vp_y="0 : 1000 : 0"
       inkscape:vp_z="744.09448 : 526.18109 : 1"
       inkscape:persp3d-origin="372.04724 : 350.78739 : 1"
       id="perspective10" />
  </defs>
  <sodipodi:namedview
     id="base"
     pagecolor="#000000"
     bordercolor="#666666"
     borderopacity="1.0"
     gridtolerance="10000"
     guidetolerance="10"
     objecttolerance="10"
     inkscape:pageopacity="0"
     inkscape:pageshadow="2"
     inkscape:zoom="0.35"
     inkscape:cx="-127.85714"
     inkscape:cy="177.14286"
     inkscape:document-units="px"
     inkscape:current-layer="layer1"
     showgrid="false"
     inkscape:window-width="1385"
     inkscape:window-height="827"
     inkscape:window-x="0"
     inkscape:window-y="25" />
  <metadata
     id="metadata7">
    <rdf:RDF>
      <cc:Work
         rdf:about="">
        <dc:format>image/svg+xml</dc:format>
        <dc:type
           rdf:resource="http://purl.org/dc/dcmitype/StillImage" />
        <cc:license
           rdf:resource="http://www.gnu.org/copyleft/gpl.html" />
        <dc:creator>
          <cc:Agent>
            <dc:title>Nadia Alramli</dc:title>
          </cc:Agent>
        </dc:creator>
      </cc:Work>
    </rdf:RDF>
  </metadata>
  <g
     inkscape:label="Layer 1"
     inkscape:groupmode="layer"
     id="layer1">
    <rect
       style="opacity:1;fill:#000000;fill-opacity:1;fill-rule:nonzero;stroke:#000000;stroke-width:1.04597341999999993;stroke-linecap:round;stroke-linejoin:round;stroke-miterlimit:4;stroke-dasharray:none;stroke-opacity:1"
       id="rect2419"
       width="510.95404"
       height="510.95404"
       x="0.52298671"
       y="0.5230003" />
    <path
       sodipodi:type="star"
       style="opacity:1;fill:#ffffff;fill-opacity:1;fill-rule:nonzero;stroke:none;stroke-width:1;stroke-linecap:round;stroke-linejoin:round;stroke-miterlimit:4;stroke-dasharray:none;stroke-opacity:1"
       id="path2397"
       sodipodi:sides="13"
       sodipodi:cx="134.28571"
       sodipodi:cy="86.285713"
       sodipodi:r1="398.87598"
       sodipodi:r2="82.771614"
       sodipodi:arg1="1.5707963"
       sodipodi:arg2="-1.302627"
       inkscape:flatsided="false"
       inkscape:rounded="0.46009712"
       inkscape:randomized="0"
       d="M 134.28572,485.16169 C 354.6834,490.98223 370.28421,59.240234 156.21742,6.472557 C -58.239479,-46.391283 -243.87942,331.69906 -51.081194,439.47286 C 141.36632,547.0506 355.82067,172.0121 190.7963,25.80685 C 25.471196,-120.66485 -314.61216,127.84634 -193.98278,312.8731 C -73.572839,497.56329 290.60613,265.14509 212.42928,58.996122 C 134.10996,-147.52853 -282.5078,-85.527415 -261.68201,134.36491 C -240.89411,353.85724 189.58047,317.30355 216.16051,98.43711 C 242.78899,-120.82819 -154.92107,-259.54086 -238.66982,-55.157647 C -322.26621,148.85377 75.887444,316.53861 201.13521,135.09436 C 326.61122,-46.68055 38.919441,-354.3296 -130.218,-212.27724 C -299.04777,-70.483275 -24.427243,263.0255 170.79549,160.57014 C 366.374,57.928059 254.60722,-348.17868 38.828426,-300.99965 C -176.55785,-253.90644 -88.382706,169.02344 132.09182,169.02825 C 352.96814,169.03306 442.73078,-242.49721 229.74296,-300.99965 C 17.142583,-359.39568 -101.32752,56.067161 93.890746,158.53104 C 289.46477,261.18165 560.1933,-61.495531 398.7894,-212.27725 C 237.67909,-362.78469 -60.296183,-49.966412 64.943668,131.4833 C 190.41175,313.26368 580.08552,153.36105 507.24122,-55.157667 C 434.52942,-263.29707 25.31152,-124.78626 51.882014,94.081337 C 78.50093,313.3478 497.85038,352.85148 530.25343,134.36489 C 562.59754,-83.72426 135.88389,-151.25207 57.698053,54.893491 C -20.630272,261.41473 332.32695,491.2749 462.5542,312.87309 C 592.54457,134.79579 246.09014,-123.30083 81.059401,22.897224 C -84.272092,169.36171 121.43465,536.92019 319.65262,439.47285 C 517.51002,342.20277 330.68334,-47.335843 116.61425,5.4224962 C -97.844953,58.276982 -86.513617,479.33054 134.28572,485.16169 z"
       transform="matrix(0.6444823,0,0,0.6466142,169.13564,198.24986)" />
  </g>
</svg>
